<svg viewBox="0 0 23 23" fill="none" xmlns="http://www.w3.org/2000/svg">
<path d="M1.97379 9C2.23703 8.282 2.5663 7.599 2.95697 6.963C3.01464 6.975 3.06859 7 3.12905 7H4.87774C4.69264 7.634 4.54754 8.309 4.42197 9H6.33344C6.47762 8.301 6.64504 7.624 6.85619 7H16.1447C16.3559 7.624 16.5233 8.301 16.6675 9H18.579C18.4534 8.309 18.3083 7.634 18.1232 7H19.8719C19.9323 7 19.9863 6.975 20.0449 6.963C20.4337 7.599 20.7639 8.282 21.0271 9H23C21.4271 3.784 16.8693 0 11.5005 0C6.1316 0 1.57383 3.784 0 9H1.97379ZM18.5008 5H17.3958C17.1558 4.457 16.8917 3.95 16.6042 3.481C17.2926 3.909 17.9269 4.419 18.5008 5ZM11.5005 2C12.9431 2 14.2751 3.154 15.2788 5H7.72217C8.72581 3.154 10.0578 2 11.5005 2ZM6.39483 3.481C6.10834 3.95 5.84418 4.457 5.6042 5H4.5001C5.07401 4.419 5.70837 3.909 6.39483 3.481Z"/>
<path d="M21.0271 14C20.7639 14.719 20.4337 15.4 20.044 16.037C19.9863 16.025 19.9323 16 19.8719 16H18.1223C18.3074 15.366 18.4525 14.691 18.578 14H16.6666C16.5233 14.699 16.355 15.377 16.1438 16H6.85619C6.64504 15.377 6.47761 14.699 6.33344 14H4.4229C4.54847 14.691 4.69357 15.366 4.87867 16H3.12905C3.06859 16 3.01464 16.025 2.95697 16.037C2.56723 15.4 2.23703 14.719 1.97379 14H0C1.57383 19.216 6.1316 23 11.5005 23C16.8693 23 21.4271 19.216 23 14H21.0271ZM4.5001 18H5.60513C5.84511 18.543 6.10927 19.051 6.39576 19.519C5.70838 19.091 5.07401 18.581 4.5001 18ZM11.5005 21C10.0578 21 8.72581 19.846 7.72217 18H15.2778C14.2751 19.846 12.9431 21 11.5005 21ZM16.6052 19.519C16.8926 19.051 17.1568 18.543 17.3967 18H18.5018C17.9269 18.581 17.2926 19.091 16.6052 19.519Z"/>
<path d="M7.0976 9.94413L5.6263 13.2846C5.59004 13.3677 5.49897 13.4208 5.39906 13.4208H4.64572C4.54581 13.4208 4.45473 13.3669 4.41937 13.2846L3.72085 11.6904C3.65277 11.533 3.59087 11.3827 3.53252 11.2333C3.46797 11.3978 3.40165 11.5507 3.33534 11.6975L2.5988 13.289C2.56167 13.3695 2.47148 13.4208 2.37333 13.4208H1.62C1.51654 13.4208 1.42636 13.3651 1.39099 13.2811L0.0142919 9.93971C-0.012234 9.87428 -0.00162364 9.80177 0.0443547 9.7443C0.090333 9.68683 0.163721 9.65323 0.243299 9.65323H1.09125C1.19823 9.65323 1.29196 9.71424 1.32379 9.80266L1.92858 11.5003C1.97898 11.6436 2.02584 11.7788 2.06917 11.9079C2.12222 11.7788 2.17969 11.6427 2.2407 11.4985L2.9852 9.79028C3.02145 9.70805 3.11164 9.65323 3.21155 9.65323H3.91184C4.01352 9.65323 4.10371 9.70893 4.13996 9.79205L4.84555 11.4632C4.90921 11.6135 4.9658 11.7541 5.01797 11.8867C5.06129 11.7612 5.11169 11.625 5.16917 11.4756L5.82082 9.79735C5.85442 9.7107 5.94726 9.65234 6.05071 9.65234H6.86948C6.94994 9.65234 7.02421 9.68683 7.07019 9.7443C7.11705 9.80443 7.1259 9.87781 7.0976 9.94413ZM14.9864 9.94413L13.5151 13.2846C13.4789 13.3677 13.3878 13.4208 13.2888 13.4208H12.5337C12.4337 13.4208 12.3435 13.3669 12.3073 13.2846L11.6097 11.6904C11.5407 11.533 11.4788 11.3827 11.4204 11.2333C11.3559 11.3978 11.2896 11.5507 11.2233 11.6975L10.4867 13.289C10.4496 13.3695 10.3603 13.4208 10.2613 13.4208H9.50704C9.40447 13.4208 9.3134 13.3651 9.27803 13.2811L7.90134 9.93971C7.87481 9.87428 7.88542 9.80177 7.9314 9.7443C7.97738 9.68771 8.05165 9.65323 8.13035 9.65323H8.97829C9.08528 9.65323 9.179 9.71424 9.21083 9.80266L9.81474 11.5003C9.86514 11.6436 9.912 11.7788 9.9571 11.9079C10.0093 11.7788 10.0659 11.6427 10.1269 11.4985L10.8722 9.79028C10.9076 9.70805 10.9978 9.65323 11.0986 9.65323H11.7989C11.9006 9.65323 11.9916 9.70893 12.027 9.79205L12.7335 11.4632C12.7963 11.6135 12.8528 11.7541 12.9041 11.8867C12.9492 11.7612 12.9979 11.625 13.0562 11.4756L13.7079 9.79735C13.7415 9.7107 13.8352 9.65234 13.9386 9.65234H14.7574C14.8388 9.65234 14.9139 9.68683 14.9581 9.7443C15.005 9.80443 15.0156 9.87781 14.9864 9.94413ZM22.8743 9.94413L21.4039 13.2846C21.3668 13.3677 21.2766 13.4208 21.1767 13.4208H20.4225C20.3226 13.4208 20.2315 13.3669 20.1961 13.2846L19.4985 11.6904C19.4295 11.533 19.3676 11.3827 19.3093 11.2333C19.2447 11.3978 19.1775 11.5507 19.1112 11.6975L18.3747 13.289C18.3375 13.3695 18.2473 13.4208 18.1492 13.4208H17.3959C17.2924 13.4208 17.2013 13.3651 17.166 13.2811L15.7893 9.93971C15.7636 9.87428 15.7725 9.80177 15.8184 9.7443C15.8644 9.68683 15.9387 9.65323 16.0183 9.65323H16.8671C16.9741 9.65323 17.0678 9.71424 17.0988 9.80266L17.7036 11.5003C17.754 11.6436 17.8008 11.7788 17.845 11.9079C17.8972 11.7788 17.9538 11.6427 18.0148 11.4985L18.7602 9.79028C18.7964 9.70805 18.8866 9.65323 18.9874 9.65323H19.6868C19.7885 9.65323 19.8796 9.70893 19.9149 9.79205L20.6205 11.4632C20.6842 11.6135 20.7417 11.7541 20.7938 11.8867C20.8372 11.7612 20.8876 11.625 20.945 11.4756L21.5976 9.79735C21.6303 9.7107 21.7231 9.65234 21.8275 9.65234H22.6462C22.7276 9.65234 22.8018 9.68683 22.8469 9.7443C22.892 9.80443 22.9026 9.87781 22.8743 9.94413Z"/>
</svg>
