<svg width="26" height="31" viewBox="0 0 26 31" fill="none" xmlns="http://www.w3.org/2000/svg">
<g filter="url(#filter0_i)">
<path d="M18.9015 0H2.81813C1.26395 0 0 1.26257 0 2.8182V28.1818C0 29.7374 1.26395 31 2.8182 31H22.5454C24.0997 31 25.3636 29.7374 25.3636 28.1818V6.4621L18.9015 0ZM8.45453 20.4318H5.28408C4.70072 20.4318 4.22727 20.9052 4.22727 21.4886V23.6022C4.22727 24.1842 4.70072 24.659 5.28408 24.659H8.45453V26.7727H5.28408C3.53684 26.7727 2.11363 25.3509 2.11363 23.6022V21.4886C2.11363 19.7399 3.53684 18.3181 5.28408 18.3181H8.45453V20.4318ZM15.8523 20.4318H12.1534C11.8617 20.4318 11.625 20.6685 11.625 20.9602C11.625 21.2519 11.8617 21.4886 12.1534 21.4886H13.2102C14.6672 21.4886 15.8523 22.6736 15.8523 24.1306C15.8523 25.5862 14.6672 26.7727 13.2102 26.7727H9.51135V24.659H13.2102C13.5019 24.659 13.7386 24.4223 13.7386 24.1306C13.7386 23.8389 13.5019 23.6022 13.2102 23.6022H12.1534C10.6964 23.6022 9.51135 22.4172 9.51135 20.9602C9.51135 19.5032 10.6964 18.3181 12.1534 18.3181H15.8523V20.4318ZM21.1363 26.6867L21.1589 26.7713H21.1152H19.0016H18.9847L16.9091 18.3167H19.0227L20.064 22.4397L21.0757 18.3167H23.2499L21.1363 26.6867ZM16.9091 8.45453V1.40907L23.9545 8.45453H16.9091Z" fill="#1991EB"/>
</g>
<defs>
<filter id="filter0_i" x="0" y="0" width="27.3636" height="33" filterUnits="userSpaceOnUse" colorInterpolationFilters="sRGB">
<feFlood floodOpacity="0" result="BackgroundImageFix"/>
<feBlend mode="normal" in="SourceGraphic" in2="BackgroundImageFix" result="shape"/>
<feColorMatrix in="SourceAlpha" type="matrix" values="0 0 0 0 0 0 0 0 0 0 0 0 0 0 0 0 0 0 127 0" result="hardAlpha"/>
<feOffset dx="2" dy="2"/>
<feGaussianBlur stdDeviation="2"/>
<feComposite in2="hardAlpha" operator="arithmetic" k2="-1" k3="1"/>
<feColorMatrix type="matrix" values="0 0 0 0 0 0 0 0 0 0 0 0 0 0 0 0 0 0 0.5 0"/>
<feBlend mode="normal" in2="shape" result="effect1_innerShadow"/>
</filter>
</defs>
</svg>
