<svg width="17" height="17" viewBox="0 0 17 17" fill="none" xmlns="http://www.w3.org/2000/svg">
<path d="M15.2368 5.92822C14.8681 5.42513 14.3538 4.83756 13.7897 4.27284C13.2255 3.70813 12.6374 3.19441 12.1343 2.82572C11.2779 2.19778 10.863 2.125 10.625 2.125H4.51562C3.78303 2.125 3.1875 2.72106 3.1875 3.45312V15.6719C3.1875 16.4039 3.78303 17 4.51562 17H14.6094C15.3414 17 15.9375 16.4039 15.9375 15.6719V7.4375C15.9375 7.1995 15.8647 6.78406 15.2368 5.92822ZM13.0385 5.02403C13.5479 5.5335 13.948 5.99356 14.2433 6.375H11.6875V3.81916C12.0689 4.11453 12.529 4.51456 13.0385 5.02403ZM14.875 15.6719C14.875 15.8158 14.7533 15.9375 14.6094 15.9375H4.51562C4.37166 15.9375 4.25 15.8158 4.25 15.6719V3.45312C4.25 3.30916 4.37166 3.1875 4.51562 3.1875C4.51562 3.1875 10.6245 3.1875 10.625 3.1875V6.90625C10.625 7.1995 10.863 7.4375 11.1562 7.4375H14.875V15.6719Z" fill="#16737A"/>
<path d="M10.0093 0.700719C9.15291 0.0727812 8.738 0 8.5 0H2.39062C1.65856 0 1.0625 0.595531 1.0625 1.32812V13.5469C1.0625 14.1881 1.51937 14.7247 2.125 14.8484V1.32812C2.125 1.18416 2.24666 1.0625 2.39062 1.0625H10.4736C10.3137 0.93075 10.1575 0.809094 10.0098 0.700719H10.0093Z" fill="#16737A"/>
<path d="M6.90625 10.625H9.5625M12.2188 10.625H9.5625M9.5625 10.625V13.2812M9.5625 10.625V7.96875" stroke="#16737A" stroke-width="2" stroke-linecap="round" stroke-linejoin="round"/>
</svg>
