<svg width="22" height="21" viewBox="0 0 22 21" fill="none" xmlns="http://www.w3.org/2000/svg">
<path d="M1.77821 8.78623H20.2219C20.4765 8.78623 20.7085 8.88125 20.8583 9.0466C20.9315 9.12739 21.015 9.26059 20.9977 9.43515L20.095 18.5044C20.0638 18.8177 19.7231 19.084 19.3193 19.084H2.92389C2.52831 19.084 2.1882 18.8242 2.14941 18.5176L1.00373 9.43917C0.981438 9.26285 1.06339 9.13016 1.13603 9.04769C1.28325 8.88092 1.52332 8.78623 1.77821 8.78623ZM3.59841 7.5304V6.01118C3.59841 5.57448 3.96935 5.18618 4.40633 5.18618H17.5937C18.0307 5.18618 18.3458 5.57457 18.3458 6.01118V7.5304H20.0216V4.03593C20.0216 3.68907 19.8032 3.42794 19.4561 3.42794H12.0613V3.05395C12.0613 1.87875 11.3055 1 10.3249 1H3.66402C2.68358 1 1.92258 1.87875 1.92258 3.05395V7.53031H3.59841V7.5304Z" fill="#10585E" stroke="#10585E" stroke-width="2"/>
</svg>
