<svg width="22" height="18" viewBox="0 0 22 18" fill="none" xmlns="http://www.w3.org/2000/svg">
<path fill-rule="evenodd" clip-rule="evenodd" d="M20.7969 8.0285H15.5315V4.76425H20.7969V8.0285ZM14.5315 4.76425V8.0285H7.46222V4.76425H14.5315ZM14.5315 9.0285H7.46222V12.2928H14.5315V9.0285ZM6.46222 4.76425V8.0285H1V4.76425H6.46222ZM6.46222 9.0285H1V12.2928H6.46222V9.0285ZM0 8.5285V9.0285V12.2928V12.7928V13.057C0 13.1361 0.00229836 13.2148 0.00683198 13.2928C0.12885 15.3922 1.87 17.057 4 17.057H6.46222H6.96222H7.46222H14.3796H14.5315H15.0315H15.5315H17.7969C19.9269 17.057 21.6681 15.3922 21.7901 13.2928C21.7946 13.2148 21.7969 13.1361 21.7969 13.057V12.7928V12.2928V9.0285V8.5285V8.0285V4.76425V4.26425V4C21.7969 3.92086 21.7946 3.84226 21.7901 3.76425C21.6681 1.66485 19.9269 0 17.7969 0H4C1.87 0 0.128849 1.66485 0.00683191 3.76425C0.00229834 3.84226 0 3.92086 0 4V4.26425V4.76425V8.0285V8.5285ZM4 16.057C2.42249 16.057 1.12936 14.8394 1.00913 13.2928H6.46222V16.057H4ZM7.46222 16.057V13.2928H14.5315V16.057H14.3796H7.46222ZM15.5315 16.057V13.2928H20.7878C20.6676 14.8394 19.3744 16.057 17.7969 16.057H15.5315ZM20.7969 9.0285V12.2928H15.5315V9.0285H20.7969ZM4 1C2.42249 1 1.12935 2.21759 1.00913 3.76425H6.96222H15.0315H20.7878C20.6676 2.21759 19.3744 1 17.7969 1H4Z" fill="#10585E"/>
</svg>
