<svg xmlns="http://www.w3.org/2000/svg" width="104" height="64" viewBox="0 0 104 64" fill="none">
<mask id="path-1-inside-1" fill="white">
<path fill-rule="evenodd" clip-rule="evenodd" d="M20.2436 2.14097C18.7279 2.73097 17.2593 3.43556 15.8506 4.24863C0.692869 13 -4.50009 32.3818 4.25127 47.5408C13.0026 62.6986 32.3844 67.8928 47.5434 59.1401C48.685 58.4779 49.7845 57.7456 50.8356 56.9475C41.9025 49.7795 37.6836 38.4144 39.3834 27.4089C39.3834 27.4089 39.3834 27.4089 39.3834 27.4089C39.9806 23.5328 41.2941 19.8016 43.2566 16.4061C45.3643 12.7458 48.1842 9.545 51.5498 6.99296C42.8675 0.0182386 30.9162 -2.01056 20.2435 2.14048C20.2436 2.14064 20.2436 2.14081 20.2436 2.14097Z"/>
</mask>
<path fill-rule="evenodd" clip-rule="evenodd" d="M20.2436 2.14097C18.7279 2.73097 17.2593 3.43556 15.8506 4.24863C0.692869 13 -4.50009 32.3818 4.25127 47.5408C13.0026 62.6986 32.3844 67.8928 47.5434 59.1401C48.685 58.4779 49.7845 57.7456 50.8356 56.9475C41.9025 49.7795 37.6836 38.4144 39.3834 27.4089C39.3834 27.4089 39.3834 27.4089 39.3834 27.4089C39.9806 23.5328 41.2941 19.8016 43.2566 16.4061C45.3643 12.7458 48.1842 9.545 51.5498 6.99296C42.8675 0.0182386 30.9162 -2.01056 20.2435 2.14048C20.2436 2.14064 20.2436 2.14081 20.2436 2.14097Z" fill="#F47E60"/>
<path d="M20.2436 2.14097L20.7079 3.33379L21.6402 2.9709L21.5132 1.97857L20.2436 2.14097ZM15.8506 4.24863L15.2108 3.14004L15.2106 3.14012L15.8506 4.24863ZM4.25127 47.5408L3.14273 48.1808L3.14276 48.1808L4.25127 47.5408ZM47.5434 59.1401L48.1835 60.2486L48.1857 60.2473L47.5434 59.1401ZM50.8356 56.9475L51.6097 57.9669L52.9155 56.9753L51.6367 55.9492L50.8356 56.9475ZM39.3834 27.4089L40.6484 27.6043L40.8038 26.5985L39.8588 26.2205L39.3834 27.4089ZM39.3834 27.4089L38.1183 27.214L37.9634 28.2195L38.908 28.5974L39.3834 27.4089ZM43.2566 16.4061L44.3649 17.0466L44.3659 17.0448L43.2566 16.4061ZM51.5498 6.99296L52.3232 8.01289L53.6298 7.02207L52.3514 5.99507L51.5498 6.99296ZM20.2435 2.14048L19.7795 0.947534L18.8469 1.31027L18.9739 2.30288L20.2435 2.14048ZM19.7793 0.948151C18.203 1.56172 16.6757 2.29447 15.2108 3.14004L16.4905 5.35722C17.8429 4.57664 19.2528 3.90021 20.7079 3.33379L19.7793 0.948151ZM15.2106 3.14012C-0.559401 12.245 -5.96202 32.4096 3.14273 48.1808L5.3598 46.9008C-3.03816 32.3539 1.94514 13.755 16.4906 5.35714L15.2106 3.14012ZM3.14276 48.1808C12.2476 63.9507 32.4122 69.3548 48.1835 60.2486L46.9034 58.0317C32.3566 66.4308 13.7577 61.4464 5.35978 46.9008L3.14276 48.1808ZM48.1857 60.2473C49.373 59.5586 50.5165 58.797 51.6097 57.9669L50.0615 55.9281C49.0525 56.6943 47.997 57.3972 46.9012 58.033L48.1857 60.2473ZM51.6367 55.9492C43.0678 49.0735 39.017 38.1669 40.6484 27.6043L38.1184 27.2136C36.3502 38.6618 40.7371 50.4856 50.0345 57.9459L51.6367 55.9492ZM39.8588 26.2205C39.8588 26.2205 39.8588 26.2205 39.8588 26.2205C39.8588 26.2205 39.8588 26.2205 39.8588 26.2205C39.8588 26.2205 39.8588 26.2205 39.8588 26.2205C39.8588 26.2205 39.8588 26.2205 39.8588 26.2205C39.8588 26.2205 39.8588 26.2205 39.8588 26.2205C39.8588 26.2205 39.8588 26.2205 39.8588 26.2205C39.8588 26.2205 39.8588 26.2205 39.8588 26.2205C39.8588 26.2205 39.8588 26.2205 39.8588 26.2205C39.8588 26.2205 39.8588 26.2205 39.8588 26.2205C39.8588 26.2205 39.8588 26.2205 39.8588 26.2205C39.8588 26.2205 39.8588 26.2205 39.8588 26.2205C39.8588 26.2205 39.8588 26.2205 39.8588 26.2205C39.8588 26.2205 39.8588 26.2205 39.8588 26.2205C39.8588 26.2205 39.8588 26.2205 39.8588 26.2205C39.8588 26.2205 39.8588 26.2205 39.8588 26.2205C39.8588 26.2205 39.8588 26.2205 39.8588 26.2205C39.8588 26.2205 39.8588 26.2205 39.8588 26.2205C39.8588 26.2205 39.8588 26.2205 39.8588 26.2205C39.8588 26.2205 39.8588 26.2205 39.8588 26.2205C39.8588 26.2205 39.8588 26.2205 39.8588 26.2205C39.8588 26.2205 39.8588 26.2205 39.8588 26.2205C39.8588 26.2205 39.8588 26.2205 39.8588 26.2205C39.8588 26.2205 39.8588 26.2205 39.8588 26.2205C39.8588 26.2205 39.8588 26.2205 39.8588 26.2205C39.8588 26.2205 39.8588 26.2205 39.8588 26.2205C39.8588 26.2205 39.8588 26.2205 39.8588 26.2205C39.8588 26.2205 39.8588 26.2205 39.8588 26.2205C39.8588 26.2205 39.8588 26.2205 39.8588 26.2205C39.8588 26.2205 39.8588 26.2205 39.8588 26.2205C39.8588 26.2205 39.8588 26.2205 39.8588 26.2205C39.8588 26.2205 39.8588 26.2205 39.8588 26.2205C39.8588 26.2205 39.8588 26.2205 39.8588 26.2205C39.8588 26.2205 39.8588 26.2205 39.8588 26.2205C39.8588 26.2205 39.8588 26.2205 39.8588 26.2205C39.8588 26.2205 39.8588 26.2205 39.8588 26.2205C39.8588 26.2205 39.8588 26.2205 39.8588 26.2205C39.8588 26.2205 39.8588 26.2205 39.8588 26.2205C39.8588 26.2205 39.8588 26.2205 39.8588 26.2205C39.8588 26.2205 39.8588 26.2205 39.8588 26.2205C39.8588 26.2205 39.8588 26.2205 39.8588 26.2205C39.8588 26.2205 39.8588 26.2205 39.8588 26.2205C39.8588 26.2205 39.8588 26.2205 39.8588 26.2205C39.8588 26.2205 39.8588 26.2205 39.8588 26.2205C39.8588 26.2205 39.8588 26.2205 39.8588 26.2205C39.8588 26.2205 39.8588 26.2205 39.8588 26.2205C39.8588 26.2205 39.8588 26.2205 39.8588 26.2205C39.8588 26.2205 39.8588 26.2205 39.8588 26.2205C39.8588 26.2205 39.8588 26.2205 39.8588 26.2205C39.8588 26.2205 39.8588 26.2205 39.8588 26.2205C39.8588 26.2205 39.8588 26.2205 39.8588 26.2205C39.8588 26.2205 39.8588 26.2205 39.8588 26.2205C39.8588 26.2205 39.8588 26.2205 39.8588 26.2205C39.8588 26.2205 39.8588 26.2205 39.8588 26.2205C39.8588 26.2205 39.8588 26.2205 39.8588 26.2205C39.8588 26.2205 39.8588 26.2205 39.8588 26.2205C39.8588 26.2205 39.8588 26.2205 39.8588 26.2205C39.8588 26.2205 39.8588 26.2205 39.8588 26.2205C39.8588 26.2205 39.8588 26.2205 39.8588 26.2205C39.8588 26.2205 39.8588 26.2205 39.8588 26.2205C39.8588 26.2205 39.8588 26.2205 39.8588 26.2205C39.8588 26.2205 39.8588 26.2205 39.8588 26.2205C39.8588 26.2205 39.8588 26.2205 39.8588 26.2205C39.8588 26.2205 39.8588 26.2205 39.8588 26.2205C39.8588 26.2205 39.8588 26.2205 39.8588 26.2205C39.8588 26.2205 39.8588 26.2205 39.8588 26.2205C39.8588 26.2205 39.8588 26.2205 39.8588 26.2205C39.8588 26.2205 39.8588 26.2205 39.8588 26.2205C39.8588 26.2205 39.8588 26.2205 39.8588 26.2205C39.8588 26.2205 39.8588 26.2205 39.8588 26.2205C39.8588 26.2205 39.8588 26.2205 39.8588 26.2205C39.8588 26.2205 39.8588 26.2205 39.8588 26.2205C39.8588 26.2205 39.8588 26.2205 39.8588 26.2205C39.8588 26.2205 39.8588 26.2205 39.8588 26.2205C39.8588 26.2205 39.8588 26.2205 39.8588 26.2205C39.8588 26.2205 39.8588 26.2205 39.8588 26.2205C39.8588 26.2205 39.8588 26.2205 39.8588 26.2205C39.8588 26.2205 39.8588 26.2205 39.8588 26.2205C39.8588 26.2205 39.8588 26.2205 39.8588 26.2205C39.8588 26.2205 39.8588 26.2205 39.8588 26.2205C39.8588 26.2205 39.8588 26.2205 39.8588 26.2205C39.8588 26.2205 39.8588 26.2205 39.8588 26.2205C39.8588 26.2205 39.8588 26.2205 39.8588 26.2205C39.8588 26.2205 39.8588 26.2205 39.8588 26.2205C39.8588 26.2205 39.8588 26.2205 39.8588 26.2205C39.8588 26.2205 39.8588 26.2205 39.8588 26.2205C39.8588 26.2205 39.8588 26.2205 39.8588 26.2205C39.8588 26.2205 39.8588 26.2205 39.8588 26.2205C39.8588 26.2205 39.8588 26.2205 39.8588 26.2205C39.8588 26.2205 39.8588 26.2205 39.8588 26.2205C39.8588 26.2205 39.8588 26.2205 39.8588 26.2205C39.8588 26.2205 39.8588 26.2205 39.8588 26.2205C39.8588 26.2205 39.8588 26.2205 39.8588 26.2205C39.8588 26.2205 39.8588 26.2205 39.8588 26.2205C39.8588 26.2205 39.8588 26.2205 39.8588 26.2205C39.8588 26.2205 39.8588 26.2205 39.8588 26.2205C39.8588 26.2205 39.8588 26.2205 39.8588 26.2205C39.8588 26.2205 39.8588 26.2205 39.8588 26.2205C39.8588 26.2205 39.8588 26.2205 39.8588 26.2205C39.8588 26.2205 39.8588 26.2205 39.8588 26.2205C39.8588 26.2205 39.8588 26.2205 39.8588 26.2205C39.8588 26.2205 39.8588 26.2205 39.8588 26.2205C39.8588 26.2205 39.8588 26.2205 39.8588 26.2205C39.8588 26.2205 39.8588 26.2205 39.8588 26.2205C39.8588 26.2205 39.8588 26.2205 39.8588 26.2205C39.8588 26.2205 39.8588 26.2205 39.8588 26.2205C39.8588 26.2205 39.8588 26.2205 39.8588 26.2205C39.8588 26.2205 39.8588 26.2205 39.8588 26.2205C39.8588 26.2205 39.8588 26.2205 39.8588 26.2205C39.8588 26.2205 39.8588 26.2205 39.8588 26.2205C39.8588 26.2205 39.8588 26.2205 39.8588 26.2205C39.8588 26.2205 39.8588 26.2205 39.8588 26.2205C39.8588 26.2205 39.8588 26.2205 39.8588 26.2205C39.8588 26.2205 39.8588 26.2205 39.8588 26.2205C39.8588 26.2205 39.8588 26.2205 39.8588 26.2205C39.8588 26.2205 39.8588 26.2205 39.8588 26.2205C39.8588 26.2205 39.8588 26.2205 39.8588 26.2205C39.8588 26.2205 39.8588 26.2205 39.8588 26.2205C39.8588 26.2205 39.8588 26.2205 39.8588 26.2205C39.8588 26.2205 39.8588 26.2205 39.8588 26.2205C39.8588 26.2205 39.8588 26.2205 39.8588 26.2205C39.8588 26.2205 39.8588 26.2205 39.8588 26.2205C39.8588 26.2205 39.8588 26.2205 39.8588 26.2205C39.8588 26.2205 39.8588 26.2205 39.8588 26.2205C39.8588 26.2205 39.8588 26.2205 39.8588 26.2205C39.8588 26.2205 39.8588 26.2205 39.8588 26.2205C39.8588 26.2205 39.8588 26.2205 39.8588 26.2205C39.8588 26.2205 39.8588 26.2205 39.8588 26.2205C39.8588 26.2205 39.8588 26.2205 39.8588 26.2205C39.8588 26.2205 39.8588 26.2205 39.8588 26.2205C39.8588 26.2205 39.8588 26.2205 39.8588 26.2205C39.8588 26.2205 39.8588 26.2205 39.8588 26.2205C39.8588 26.2205 39.8588 26.2205 39.8588 26.2205C39.8588 26.2205 39.8588 26.2205 39.8588 26.2205C39.8588 26.2205 39.8588 26.2205 39.8588 26.2205C39.8588 26.2205 39.8588 26.2205 39.8588 26.2205C39.8588 26.2205 39.8588 26.2205 39.8588 26.2205C39.8588 26.2205 39.8588 26.2205 39.8588 26.2205C39.8588 26.2205 39.8588 26.2205 39.8588 26.2205C39.8588 26.2205 39.8588 26.2205 39.8588 26.2205C39.8588 26.2205 39.8588 26.2205 39.8588 26.2205C39.8588 26.2205 39.8588 26.2205 39.8588 26.2205C39.8588 26.2205 39.8588 26.2205 39.8588 26.2205C39.8588 26.2205 39.8588 26.2205 39.8588 26.2205C39.8588 26.2205 39.8588 26.2205 39.8588 26.2205C39.8588 26.2205 39.8588 26.2205 39.8588 26.2205C39.8588 26.2205 39.8588 26.2205 39.8588 26.2205C39.8588 26.2205 39.8588 26.2205 39.8588 26.2205C39.8588 26.2205 39.8588 26.2205 39.8588 26.2205C39.8588 26.2205 39.8588 26.2205 39.8588 26.2205C39.8588 26.2205 39.8588 26.2205 39.8588 26.2205C39.8588 26.2205 39.8588 26.2205 39.8588 26.2205C39.8588 26.2205 39.8588 26.2205 39.8588 26.2205C39.8588 26.2205 39.8588 26.2205 39.8588 26.2205C39.8588 26.2205 39.8588 26.2205 39.8588 26.2205C39.8588 26.2205 39.8588 26.2205 39.8588 26.2205C39.8588 26.2205 39.8588 26.2205 39.8588 26.2205C39.8588 26.2205 39.8588 26.2205 39.8588 26.2205C39.8588 26.2205 39.8588 26.2205 39.8588 26.2205C39.8588 26.2205 39.8588 26.2205 39.8588 26.2205C39.8588 26.2205 39.8588 26.2205 39.8588 26.2205C39.8588 26.2205 39.8588 26.2205 39.8588 26.2205C39.8588 26.2205 39.8588 26.2205 39.8588 26.2205C39.8588 26.2205 39.8588 26.2205 39.8588 26.2205C39.8588 26.2205 39.8588 26.2205 39.8588 26.2205C39.8588 26.2205 39.8588 26.2205 39.8588 26.2205C39.8588 26.2205 39.8588 26.2205 39.8588 26.2205C39.8588 26.2205 39.8588 26.2205 39.8588 26.2205C39.8588 26.2205 39.8588 26.2205 39.8588 26.2205C39.8588 26.2205 39.8588 26.2205 39.8588 26.2205C39.8588 26.2205 39.8588 26.2205 39.8588 26.2205C39.8588 26.2205 39.8588 26.2205 39.8588 26.2205C39.8588 26.2205 39.8588 26.2205 39.8588 26.2205C39.8588 26.2205 39.8588 26.2205 39.8588 26.2205C39.8588 26.2205 39.8588 26.2205 39.8588 26.2205C39.8588 26.2205 39.8588 26.2205 39.8588 26.2205C39.8588 26.2205 39.8588 26.2205 39.8588 26.2205C39.8588 26.2205 39.8588 26.2205 39.8588 26.2205C39.8588 26.2205 39.8588 26.2205 39.8588 26.2205C39.8588 26.2205 39.8588 26.2205 39.8588 26.2205C39.8588 26.2205 39.8588 26.2205 39.8588 26.2205C39.8588 26.2205 39.8588 26.2205 39.8588 26.2205C39.8588 26.2205 39.8588 26.2205 39.8588 26.2205C39.8588 26.2205 39.8588 26.2205 39.8588 26.2205C39.8588 26.2205 39.8588 26.2205 39.8588 26.2205C39.8588 26.2205 39.8588 26.2205 39.8588 26.2205C39.8588 26.2205 39.8588 26.2205 39.8588 26.2205C39.8588 26.2205 39.8588 26.2205 39.8588 26.2205C39.8588 26.2205 39.8588 26.2205 39.8588 26.2205C39.8588 26.2205 39.8588 26.2205 39.8588 26.2205C39.8588 26.2205 39.8588 26.2205 39.8588 26.2205C39.8588 26.2205 39.8588 26.2205 39.8588 26.2205C39.8588 26.2205 39.8588 26.2205 39.8588 26.2205C39.8588 26.2205 39.8588 26.2205 39.8588 26.2205C39.8588 26.2205 39.8588 26.2205 39.8588 26.2205C39.8588 26.2205 39.8588 26.2205 39.8588 26.2205C39.8588 26.2205 39.8588 26.2205 39.8588 26.2205C39.8588 26.2205 39.8588 26.2205 39.8588 26.2205C39.8588 26.2205 39.8588 26.2205 39.8588 26.2205C39.8588 26.2205 39.8588 26.2205 39.8588 26.2205C39.8588 26.2205 39.8588 26.2205 39.8588 26.2205C39.8588 26.2205 39.8588 26.2205 39.8588 26.2205C39.8588 26.2205 39.8588 26.2205 39.8588 26.2205C39.8588 26.2205 39.8588 26.2205 39.8588 26.2205C39.8588 26.2205 39.8588 26.2205 39.8588 26.2205C39.8588 26.2205 39.8588 26.2205 39.8588 26.2205C39.8588 26.2205 39.8588 26.2205 39.8588 26.2205C39.8588 26.2205 39.8588 26.2205 39.8588 26.2205C39.8588 26.2205 39.8588 26.2205 39.8588 26.2205C39.8588 26.2205 39.8588 26.2205 39.8588 26.2205C39.8588 26.2205 39.8588 26.2205 39.8588 26.2205C39.8588 26.2205 39.8588 26.2205 39.8588 26.2205C39.8588 26.2205 39.8588 26.2205 39.8588 26.2205C39.8588 26.2205 39.8588 26.2205 39.8588 26.2205C39.8588 26.2205 39.8588 26.2205 39.8588 26.2205C39.8588 26.2205 39.8588 26.2205 39.8588 26.2205C39.8588 26.2205 39.8588 26.2205 39.8588 26.2205C39.8588 26.2205 39.8588 26.2205 39.8588 26.2205C39.8588 26.2205 39.8588 26.2205 39.8588 26.2205C39.8588 26.2205 39.8588 26.2205 39.8588 26.2205C39.8588 26.2205 39.8588 26.2205 39.8588 26.2205C39.8588 26.2205 39.8588 26.2205 39.8588 26.2205C39.8588 26.2205 39.8588 26.2205 39.8588 26.2205C39.8588 26.2205 39.8588 26.2205 39.8588 26.2205C39.8588 26.2205 39.8588 26.2205 39.8588 26.2205C39.8588 26.2205 39.8588 26.2205 39.8588 26.2205C39.8588 26.2205 39.8588 26.2205 39.8588 26.2205C39.8588 26.2205 39.8588 26.2205 39.8588 26.2205C39.8588 26.2205 39.8588 26.2205 39.8588 26.2205C39.8588 26.2205 39.8588 26.2205 39.8588 26.2205C39.8588 26.2205 39.8588 26.2205 39.8588 26.2205C39.8588 26.2205 39.8588 26.2205 39.8588 26.2205C39.8588 26.2205 39.8588 26.2205 39.8588 26.2205C39.8588 26.2205 39.8588 26.2205 39.8588 26.2205C39.8588 26.2205 39.8588 26.2205 39.8588 26.2205C39.8588 26.2205 39.8588 26.2205 39.8588 26.2205C39.8588 26.2205 39.8588 26.2205 39.8588 26.2205C39.8588 26.2205 39.8588 26.2205 39.8588 26.2205C39.8588 26.2205 39.8588 26.2205 39.8588 26.2205C39.8588 26.2205 39.8588 26.2205 39.8588 26.2205C39.8588 26.2205 39.8588 26.2205 39.8588 26.2205C39.8588 26.2205 39.8588 26.2205 39.8588 26.2205C39.8588 26.2205 39.8588 26.2205 39.8588 26.2205C39.8588 26.2205 39.8588 26.2205 39.8588 26.2205C39.8588 26.2205 39.8588 26.2205 39.8588 26.2205C39.8588 26.2205 39.8588 26.2205 39.8588 26.2205C39.8588 26.2205 39.8588 26.2205 39.8588 26.2205C39.8588 26.2205 39.8588 26.2205 39.8588 26.2205C39.8588 26.2205 39.8588 26.2205 39.8588 26.2205C39.8588 26.2205 39.8588 26.2205 39.8588 26.2205C39.8588 26.2205 39.8588 26.2205 39.8588 26.2205C39.8588 26.2205 39.8588 26.2205 39.8588 26.2205C39.8588 26.2205 39.8588 26.2205 39.8588 26.2205C39.8588 26.2205 39.8588 26.2205 39.8588 26.2205C39.8588 26.2205 39.8588 26.2205 39.8588 26.2205C39.8588 26.2205 39.8588 26.2205 39.8588 26.2205C39.8588 26.2205 39.8588 26.2205 39.8588 26.2205C39.8588 26.2205 39.8588 26.2205 39.8588 26.2205C39.8588 26.2205 39.8588 26.2205 39.8588 26.2205C39.8588 26.2205 39.8588 26.2205 39.8588 26.2205C39.8588 26.2205 39.8588 26.2205 39.8588 26.2205C39.8588 26.2205 39.8588 26.2205 39.8588 26.2205C39.8588 26.2205 39.8588 26.2205 39.8588 26.2205C39.8588 26.2205 39.8588 26.2205 39.8588 26.2205C39.8588 26.2205 39.8588 26.2205 39.8588 26.2205C39.8588 26.2205 39.8588 26.2205 39.8588 26.2205C39.8588 26.2205 39.8588 26.2205 39.8588 26.2205C39.8588 26.2205 39.8588 26.2205 39.8588 26.2205C39.8588 26.2205 39.8588 26.2205 39.8588 26.2205C39.8588 26.2205 39.8588 26.2205 39.8588 26.2205C39.8588 26.2205 39.8588 26.2205 39.8588 26.2205C39.8588 26.2205 39.8588 26.2205 39.8588 26.2205C39.8588 26.2205 39.8588 26.2205 39.8588 26.2205C39.8588 26.2205 39.8588 26.2205 39.8588 26.2205C39.8588 26.2205 39.8588 26.2205 39.8588 26.2205C39.8588 26.2205 39.8588 26.2205 39.8588 26.2205C39.8588 26.2205 39.8588 26.2205 39.8588 26.2205C39.8588 26.2205 39.8588 26.2205 39.8588 26.2205C39.8588 26.2205 39.8588 26.2205 39.8588 26.2205C39.8588 26.2205 39.8588 26.2205 39.8588 26.2205C39.8588 26.2205 39.8588 26.2205 39.8588 26.2205C39.8588 26.2205 39.8588 26.2205 39.8588 26.2205C39.8588 26.2205 39.8588 26.2205 39.8588 26.2205C39.8588 26.2205 39.8588 26.2205 39.8588 26.2205C39.8588 26.2205 39.8588 26.2205 39.8588 26.2205C39.8588 26.2205 39.8588 26.2205 39.8588 26.2205C39.8588 26.2205 39.8588 26.2205 39.8588 26.2205C39.8588 26.2205 39.8588 26.2205 39.8588 26.2205C39.8588 26.2205 39.8588 26.2205 39.8588 26.2205C39.8588 26.2205 39.8588 26.2205 39.8588 26.2205C39.8588 26.2205 39.8588 26.2205 39.8588 26.2205C39.8588 26.2205 39.8588 26.2205 39.8588 26.2205C39.8588 26.2205 39.8588 26.2205 39.8588 26.2205C39.8588 26.2205 39.8588 26.2205 39.8588 26.2205C39.8588 26.2205 39.8588 26.2205 39.8588 26.2205C39.8588 26.2205 39.8588 26.2205 39.8588 26.2205C39.8588 26.2205 39.8588 26.2205 39.8588 26.2205C39.8588 26.2205 39.8588 26.2205 39.8588 26.2205C39.8588 26.2205 39.8588 26.2205 39.8588 26.2205C39.8588 26.2205 39.8588 26.2205 39.8588 26.2205C39.8588 26.2205 39.8588 26.2205 39.8588 26.2205C39.8588 26.2205 39.8588 26.2205 39.8588 26.2205C39.8588 26.2205 39.8588 26.2205 39.8588 26.2205C39.8588 26.2205 39.8588 26.2205 39.8588 26.2205C39.8588 26.2205 39.8588 26.2205 39.8588 26.2205C39.8588 26.2205 39.8588 26.2205 39.8588 26.2205C39.8588 26.2205 39.8588 26.2205 39.8588 26.2205C39.8588 26.2205 39.8588 26.2205 39.8588 26.2205C39.8588 26.2205 39.8588 26.2205 39.8588 26.2205C39.8588 26.2205 39.8588 26.2205 39.8588 26.2205C39.8588 26.2205 39.8588 26.2205 39.8588 26.2205C39.8588 26.2205 39.8588 26.2205 39.8588 26.2205C39.8588 26.2205 39.8588 26.2205 39.8588 26.2205C39.8588 26.2205 39.8588 26.2205 39.8588 26.2205C39.8588 26.2205 39.8588 26.2205 39.8588 26.2205C39.8588 26.2205 39.8588 26.2205 39.8588 26.2205C39.8588 26.2205 39.8588 26.2205 39.8588 26.2205C39.8588 26.2205 39.8588 26.2205 39.8588 26.2205C39.8588 26.2205 39.8588 26.2205 39.8588 26.2205C39.8588 26.2205 39.8588 26.2205 39.8588 26.2205C39.8588 26.2205 39.8588 26.2205 39.8588 26.2205C39.8588 26.2205 39.8588 26.2205 39.8588 26.2205C39.8588 26.2205 39.8588 26.2205 39.8588 26.2205C39.8588 26.2205 39.8588 26.2205 39.8588 26.2205C39.8588 26.2205 39.8588 26.2205 39.8588 26.2205C39.8588 26.2205 39.8588 26.2205 39.8588 26.2205C39.8588 26.2205 39.8588 26.2205 39.8588 26.2205C39.8588 26.2205 39.8588 26.2205 39.8588 26.2205C39.8588 26.2205 39.8588 26.2205 39.8588 26.2205C39.8588 26.2205 39.8588 26.2205 39.8588 26.2205C39.8588 26.2205 39.8588 26.2205 39.8588 26.2205C39.8588 26.2205 39.8588 26.2205 39.8588 26.2205C39.8588 26.2205 39.8588 26.2205 39.8588 26.2205C39.8588 26.2205 39.8588 26.2205 39.8588 26.2205C39.8588 26.2205 39.8588 26.2205 39.8588 26.2205C39.8588 26.2205 39.8588 26.2205 39.8588 26.2205C39.8588 26.2205 39.8588 26.2205 39.8588 26.2205C39.8588 26.2205 39.8588 26.2205 39.8588 26.2205C39.8588 26.2205 39.8588 26.2205 39.8588 26.2205C39.8588 26.2205 39.8588 26.2205 39.8588 26.2205C39.8588 26.2205 39.8588 26.2205 39.8588 26.2205C39.8588 26.2205 39.8588 26.2205 39.8588 26.2205C39.8588 26.2205 39.8588 26.2205 39.8588 26.2205C39.8588 26.2205 39.8588 26.2205 39.8588 26.2205C39.8588 26.2205 39.8588 26.2205 39.8588 26.2205C39.8588 26.2205 39.8588 26.2205 39.8588 26.2205C39.8588 26.2205 39.8588 26.2205 39.8588 26.2205C39.8588 26.2205 39.8588 26.2205 39.8588 26.2205C39.8588 26.2205 39.8588 26.2205 39.8588 26.2205C39.8588 26.2205 39.8588 26.2205 39.8588 26.2205C39.8588 26.2205 39.8588 26.2205 39.8588 26.2205C39.8588 26.2205 39.8588 26.2205 39.8588 26.2205C39.8588 26.2205 39.8588 26.2205 39.8588 26.2205C39.8588 26.2205 39.8588 26.2205 39.8588 26.2205C39.8588 26.2205 39.8588 26.2205 39.8588 26.2205C39.8588 26.2205 39.8588 26.2205 39.8588 26.2205C39.8588 26.2205 39.8588 26.2205 39.8588 26.2205C39.8588 26.2205 39.8588 26.2205 39.8588 26.2205C39.8588 26.2205 39.8588 26.2205 39.8588 26.2205C39.8588 26.2205 39.8588 26.2205 39.8588 26.2205C39.8588 26.2205 39.8588 26.2205 39.8588 26.2205C39.8588 26.2205 39.8588 26.2205 39.8588 26.2205C39.8588 26.2205 39.8588 26.2205 39.8588 26.2205C39.8588 26.2205 39.8588 26.2205 39.8588 26.2205C39.8588 26.2205 39.8588 26.2205 39.8588 26.2205C39.8588 26.2205 39.8588 26.2205 39.8588 26.2205C39.8588 26.2205 39.8588 26.2205 39.8588 26.2205C39.8588 26.2205 39.8588 26.2205 39.8588 26.2205C39.8588 26.2205 39.8588 26.2205 39.8588 26.2205C39.8588 26.2205 39.8588 26.2205 39.8588 26.2205C39.8588 26.2205 39.8588 26.2205 39.8588 26.2205C39.8588 26.2205 39.8588 26.2205 39.8588 26.2205C39.8588 26.2205 39.8588 26.2205 39.8588 26.2205C39.8588 26.2205 39.8588 26.2205 39.8588 26.2205C39.8588 26.2205 39.8588 26.2205 39.8588 26.2205C39.8588 26.2205 39.8588 26.2205 39.8588 26.2205C39.8588 26.2205 39.8588 26.2205 39.8588 26.2205C39.8588 26.2205 39.8588 26.2205 39.8588 26.2205C39.8588 26.2205 39.8588 26.2205 39.8588 26.2205C39.8588 26.2205 39.8588 26.2205 39.8588 26.2205C39.8588 26.2205 39.8588 26.2205 39.8588 26.2205C39.8588 26.2205 39.8588 26.2205 39.8588 26.2205C39.8588 26.2205 39.8588 26.2205 39.8588 26.2205C39.8588 26.2205 39.8588 26.2205 39.8588 26.2205C39.8588 26.2205 39.8588 26.2205 39.8588 26.2205C39.8588 26.2205 39.8588 26.2205 39.8588 26.2205C39.8588 26.2205 39.8588 26.2205 39.8588 26.2205C39.8588 26.2205 39.8588 26.2205 39.8588 26.2205C39.8588 26.2205 39.8588 26.2205 39.8588 26.2205C39.8588 26.2205 39.8588 26.2205 39.8588 26.2205C39.8588 26.2205 39.8588 26.2205 39.8588 26.2205C39.8588 26.2205 39.8588 26.2205 39.8588 26.2205C39.8588 26.2205 39.8588 26.2205 39.8588 26.2205C39.8588 26.2205 39.8588 26.2205 39.8588 26.2205C39.8588 26.2205 39.8588 26.2205 39.8588 26.2205C39.8588 26.2205 39.8588 26.2205 39.8588 26.2205C39.8588 26.2205 39.8588 26.2205 39.8588 26.2205C39.8588 26.2205 39.8588 26.2205 39.8588 26.2205C39.8588 26.2205 39.8588 26.2205 39.8588 26.2205C39.8588 26.2205 39.8588 26.2205 39.8588 26.2205C39.8588 26.2205 39.8588 26.2205 39.8588 26.2205C39.8588 26.2205 39.8588 26.2205 39.8588 26.2205C39.8588 26.2205 39.8588 26.2205 39.8588 26.2205C39.8588 26.2205 39.8588 26.2205 39.8588 26.2205C39.8588 26.2205 39.8588 26.2205 39.8588 26.2205C39.8588 26.2205 39.8588 26.2205 39.8588 26.2205C39.8588 26.2205 39.8588 26.2205 39.8588 26.2205C39.8588 26.2205 39.8588 26.2205 39.8588 26.2205C39.8588 26.2205 39.8588 26.2205 39.8588 26.2205C39.8588 26.2205 39.8588 26.2205 39.8588 26.2205C39.8588 26.2205 39.8588 26.2205 39.8588 26.2205C39.8588 26.2205 39.8588 26.2205 39.8588 26.2205C39.8588 26.2205 39.8588 26.2205 39.8588 26.2205C39.8588 26.2205 39.8588 26.2205 39.8588 26.2205C39.8588 26.2205 39.8588 26.2205 39.8588 26.2205C39.8588 26.2205 39.8588 26.2205 39.8588 26.2205C39.8588 26.2205 39.8588 26.2205 39.8588 26.2205C39.8588 26.2205 39.8588 26.2205 39.8588 26.2205C39.8588 26.2205 39.8588 26.2205 39.8588 26.2205C39.8588 26.2205 39.8588 26.2205 39.8588 26.2205C39.8588 26.2205 39.8588 26.2205 39.8588 26.2205C39.8588 26.2205 39.8588 26.2205 39.8588 26.2205C39.8588 26.2205 39.8588 26.2205 39.8588 26.2205C39.8588 26.2205 39.8588 26.2205 39.8588 26.2205C39.8588 26.2205 39.8588 26.2205 39.8588 26.2205C39.8588 26.2205 39.8588 26.2205 39.8588 26.2205C39.8588 26.2205 39.8588 26.2205 39.8588 26.2205C39.8588 26.2205 39.8588 26.2205 39.8588 26.2205C39.8588 26.2205 39.8588 26.2205 39.8588 26.2205C39.8588 26.2205 39.8588 26.2205 39.8588 26.2205C39.8588 26.2205 39.8588 26.2205 39.8588 26.2205C39.8588 26.2205 39.8588 26.2205 39.8588 26.2205C39.8588 26.2205 39.8588 26.2205 39.8588 26.2205C39.8588 26.2205 39.8588 26.2205 39.8588 26.2205C39.8588 26.2205 39.8588 26.2205 39.8588 26.2205C39.8588 26.2205 39.8588 26.2205 39.8588 26.2205C39.8588 26.2205 39.8588 26.2205 39.8588 26.2205C39.8588 26.2205 39.8588 26.2205 39.8588 26.2205C39.8588 26.2205 39.8588 26.2205 39.8588 26.2205C39.8588 26.2205 39.8588 26.2205 39.8588 26.2205C39.8588 26.2205 39.8588 26.2205 39.8588 26.2205C39.8588 26.2205 39.8588 26.2205 39.8588 26.2205C39.8588 26.2205 39.8588 26.2205 39.8588 26.2205C39.8588 26.2205 39.8588 26.2205 39.8588 26.2205C39.8588 26.2205 39.8588 26.2205 39.8588 26.2205C39.8588 26.2205 39.8588 26.2205 39.8588 26.2205C39.8588 26.2205 39.8588 26.2205 39.8588 26.2205C39.8588 26.2205 39.8588 26.2205 39.8588 26.2205C39.8588 26.2205 39.8588 26.2205 39.8588 26.2205C39.8588 26.2205 39.8588 26.2205 39.8588 26.2205C39.8588 26.2205 39.8588 26.2205 39.8588 26.2205C39.8588 26.2205 39.8588 26.2205 39.8588 26.2205C39.8588 26.2205 39.8588 26.2205 39.8588 26.2205C39.8588 26.2205 39.8588 26.2205 39.8588 26.2205C39.8588 26.2205 39.8588 26.2205 39.8588 26.2205C39.8588 26.2205 39.8588 26.2205 39.8588 26.2205C39.8588 26.2205 39.8588 26.2205 39.8588 26.2205C39.8588 26.2205 39.8588 26.2205 39.8588 26.2205C39.8588 26.2205 39.8588 26.2205 39.8588 26.2205C39.8588 26.2205 39.8588 26.2205 39.8588 26.2205C39.8588 26.2205 39.8588 26.2205 39.8588 26.2205C39.8588 26.2205 39.8588 26.2205 39.8588 26.2205C39.8588 26.2205 39.8588 26.2205 39.8588 26.2205C39.8588 26.2205 39.8588 26.2205 39.8588 26.2205C39.8588 26.2205 39.8588 26.2205 39.8588 26.2205C39.8588 26.2205 39.8588 26.2205 39.8588 26.2205C39.8588 26.2205 39.8588 26.2205 39.8588 26.2205C39.8588 26.2205 39.8588 26.2205 39.8588 26.2205C39.8588 26.2205 39.8588 26.2205 39.8588 26.2205C39.8588 26.2205 39.8588 26.2205 39.8588 26.2205C39.8588 26.2205 39.8588 26.2205 39.8588 26.2205C39.8588 26.2205 39.8588 26.2205 39.8588 26.2205C39.8588 26.2205 39.8588 26.2205 39.8588 26.2205C39.8588 26.2205 39.8588 26.2205 39.8588 26.2205C39.8588 26.2205 39.8588 26.2205 39.8588 26.2205C39.8588 26.2205 39.8588 26.2205 39.8588 26.2205C39.8588 26.2205 39.8588 26.2205 39.8588 26.2205C39.8588 26.2205 39.8588 26.2205 39.8588 26.2205C39.8588 26.2205 39.8588 26.2205 39.8588 26.2205C39.8588 26.2205 39.8588 26.2205 39.8588 26.2205C39.8588 26.2205 39.8588 26.2205 39.8588 26.2205C39.8588 26.2205 39.8588 26.2205 39.8588 26.2205C39.8588 26.2205 39.8588 26.2205 39.8588 26.2205C39.8588 26.2205 39.8588 26.2205 39.8588 26.2205C39.8588 26.2205 39.8588 26.2205 39.8588 26.2205C39.8588 26.2205 39.8588 26.2205 39.8588 26.2205C39.8588 26.2205 39.8588 26.2205 39.8588 26.2205C39.8588 26.2205 39.8588 26.2205 39.8588 26.2205C39.8588 26.2205 39.8588 26.2205 39.8588 26.2205C39.8588 26.2205 39.8588 26.2205 39.8588 26.2205C39.8588 26.2205 39.8588 26.2205 39.8588 26.2205C39.8588 26.2205 39.8588 26.2205 39.8588 26.2205C39.8588 26.2205 39.8588 26.2205 39.8588 26.2205C39.8588 26.2205 39.8588 26.2205 39.8588 26.2205C39.8588 26.2205 39.8588 26.2205 39.8588 26.2205C39.8588 26.2205 39.8588 26.2205 39.8588 26.2205C39.8588 26.2205 39.8588 26.2205 39.8588 26.2205C39.8588 26.2205 39.8588 26.2205 39.8588 26.2205C39.8588 26.2205 39.8588 26.2205 39.8588 26.2205C39.8588 26.2205 39.8588 26.2205 39.8588 26.2205C39.8588 26.2205 39.8588 26.2205 39.8588 26.2205C39.8588 26.2205 39.8588 26.2205 39.8588 26.2205C39.8588 26.2205 39.8588 26.2205 39.8588 26.2205C39.8588 26.2205 39.8588 26.2205 39.8588 26.2205C39.8588 26.2205 39.8588 26.2205 39.8588 26.2205C39.8588 26.2205 39.8588 26.2205 39.8588 26.2205C39.8588 26.2205 39.8588 26.2205 39.8588 26.2205C39.8588 26.2205 39.8588 26.2205 39.8588 26.2205C39.8588 26.2205 39.8588 26.2205 39.8588 26.2205C39.8588 26.2205 39.8588 26.2205 39.8588 26.2205C39.8588 26.2205 39.8588 26.2205 39.8588 26.2205C39.8588 26.2205 39.8588 26.2205 39.8588 26.2205C39.8588 26.2205 39.8588 26.2205 39.8588 26.2205L38.908 28.5974C38.908 28.5974 38.908 28.5974 38.908 28.5974C38.908 28.5974 38.908 28.5974 38.908 28.5974C38.908 28.5974 38.908 28.5974 38.908 28.5974C38.908 28.5974 38.908 28.5974 38.908 28.5974C38.908 28.5974 38.908 28.5974 38.908 28.5974C38.908 28.5974 38.908 28.5974 38.908 28.5974C38.908 28.5974 38.908 28.5974 38.908 28.5974C38.908 28.5974 38.908 28.5974 38.908 28.5974C38.908 28.5974 38.908 28.5974 38.908 28.5974C38.908 28.5974 38.908 28.5974 38.908 28.5974C38.908 28.5974 38.908 28.5974 38.908 28.5974C38.908 28.5974 38.908 28.5974 38.908 28.5974C38.908 28.5974 38.908 28.5974 38.908 28.5974C38.908 28.5974 38.908 28.5974 38.908 28.5974C38.908 28.5974 38.908 28.5974 38.908 28.5974C38.908 28.5974 38.908 28.5974 38.908 28.5974C38.908 28.5974 38.908 28.5974 38.908 28.5974C38.908 28.5974 38.908 28.5974 38.908 28.5974C38.908 28.5974 38.908 28.5974 38.908 28.5974C38.908 28.5974 38.908 28.5974 38.908 28.5974C38.908 28.5974 38.908 28.5974 38.908 28.5974C38.908 28.5974 38.908 28.5974 38.908 28.5974C38.908 28.5974 38.908 28.5974 38.908 28.5974C38.908 28.5974 38.908 28.5974 38.908 28.5974C38.908 28.5974 38.908 28.5974 38.908 28.5974C38.908 28.5974 38.908 28.5974 38.908 28.5974C38.908 28.5974 38.908 28.5974 38.908 28.5974C38.908 28.5974 38.908 28.5974 38.908 28.5974C38.908 28.5974 38.908 28.5974 38.908 28.5974C38.908 28.5974 38.908 28.5974 38.908 28.5974C38.908 28.5974 38.908 28.5974 38.908 28.5974C38.908 28.5974 38.908 28.5974 38.908 28.5974C38.908 28.5974 38.908 28.5974 38.908 28.5974C38.908 28.5974 38.908 28.5974 38.908 28.5974C38.908 28.5974 38.908 28.5974 38.908 28.5974C38.908 28.5974 38.908 28.5974 38.908 28.5974C38.908 28.5974 38.908 28.5974 38.908 28.5974C38.908 28.5974 38.908 28.5974 38.908 28.5974C38.908 28.5974 38.908 28.5974 38.908 28.5974C38.908 28.5974 38.908 28.5974 38.908 28.5974C38.908 28.5974 38.908 28.5974 38.908 28.5974C38.908 28.5974 38.908 28.5974 38.908 28.5974C38.908 28.5974 38.908 28.5974 38.908 28.5974C38.908 28.5974 38.908 28.5974 38.908 28.5974C38.908 28.5974 38.908 28.5974 38.908 28.5974C38.908 28.5974 38.908 28.5974 38.908 28.5974C38.908 28.5974 38.908 28.5974 38.908 28.5974C38.908 28.5974 38.908 28.5974 38.908 28.5974C38.908 28.5974 38.908 28.5974 38.908 28.5974C38.908 28.5974 38.908 28.5974 38.908 28.5974C38.908 28.5974 38.908 28.5974 38.908 28.5974C38.908 28.5974 38.908 28.5974 38.908 28.5974C38.908 28.5974 38.908 28.5974 38.908 28.5974C38.908 28.5974 38.908 28.5974 38.908 28.5974C38.908 28.5974 38.908 28.5974 38.908 28.5974C38.908 28.5974 38.908 28.5974 38.908 28.5974C38.908 28.5974 38.908 28.5974 38.908 28.5974C38.908 28.5974 38.908 28.5974 38.908 28.5974C38.908 28.5974 38.908 28.5974 38.908 28.5974C38.908 28.5974 38.908 28.5974 38.908 28.5974C38.908 28.5974 38.908 28.5974 38.908 28.5974C38.908 28.5974 38.908 28.5974 38.908 28.5974C38.908 28.5974 38.908 28.5974 38.908 28.5974C38.908 28.5974 38.908 28.5974 38.908 28.5974C38.908 28.5974 38.908 28.5974 38.908 28.5974C38.908 28.5974 38.908 28.5974 38.908 28.5974C38.908 28.5974 38.908 28.5974 38.908 28.5974C38.908 28.5974 38.908 28.5974 38.908 28.5974C38.908 28.5974 38.908 28.5974 38.908 28.5974C38.908 28.5974 38.908 28.5974 38.908 28.5974C38.908 28.5974 38.908 28.5974 38.908 28.5974C38.908 28.5974 38.908 28.5974 38.908 28.5974C38.908 28.5974 38.908 28.5974 38.908 28.5974C38.908 28.5974 38.908 28.5974 38.908 28.5974C38.908 28.5974 38.908 28.5974 38.908 28.5974C38.908 28.5974 38.908 28.5974 38.908 28.5974C38.908 28.5974 38.908 28.5974 38.908 28.5974C38.908 28.5974 38.908 28.5974 38.908 28.5974C38.908 28.5974 38.908 28.5974 38.908 28.5974C38.908 28.5974 38.908 28.5974 38.908 28.5974C38.908 28.5974 38.908 28.5974 38.908 28.5974C38.908 28.5974 38.908 28.5974 38.908 28.5974C38.908 28.5974 38.908 28.5974 38.908 28.5974C38.908 28.5974 38.908 28.5974 38.908 28.5974C38.908 28.5974 38.908 28.5974 38.908 28.5974C38.908 28.5974 38.908 28.5974 38.908 28.5974C38.908 28.5974 38.908 28.5974 38.908 28.5974C38.908 28.5974 38.908 28.5974 38.908 28.5974C38.908 28.5974 38.908 28.5974 38.908 28.5974C38.908 28.5974 38.908 28.5974 38.908 28.5974C38.908 28.5974 38.908 28.5974 38.908 28.5974C38.908 28.5974 38.908 28.5974 38.908 28.5974C38.908 28.5974 38.908 28.5974 38.908 28.5974C38.908 28.5974 38.908 28.5974 38.908 28.5974C38.908 28.5974 38.908 28.5974 38.908 28.5974C38.908 28.5974 38.908 28.5974 38.908 28.5974C38.908 28.5974 38.908 28.5974 38.908 28.5974C38.908 28.5974 38.908 28.5974 38.908 28.5974C38.908 28.5974 38.908 28.5974 38.908 28.5974C38.908 28.5974 38.908 28.5974 38.908 28.5974C38.908 28.5974 38.908 28.5974 38.908 28.5974C38.908 28.5974 38.908 28.5974 38.908 28.5974C38.908 28.5974 38.908 28.5974 38.908 28.5974C38.908 28.5974 38.908 28.5974 38.908 28.5974C38.908 28.5974 38.908 28.5974 38.908 28.5974C38.908 28.5974 38.908 28.5974 38.908 28.5974C38.908 28.5974 38.908 28.5974 38.908 28.5974C38.908 28.5974 38.908 28.5974 38.908 28.5974C38.908 28.5974 38.908 28.5974 38.908 28.5974C38.908 28.5974 38.908 28.5974 38.908 28.5974C38.908 28.5974 38.908 28.5974 38.908 28.5974C38.908 28.5974 38.908 28.5974 38.908 28.5974C38.908 28.5974 38.908 28.5974 38.908 28.5974C38.908 28.5974 38.908 28.5974 38.908 28.5974C38.908 28.5974 38.908 28.5974 38.908 28.5974C38.908 28.5974 38.908 28.5974 38.908 28.5974C38.908 28.5974 38.908 28.5974 38.908 28.5974C38.908 28.5974 38.908 28.5974 38.908 28.5974C38.908 28.5974 38.908 28.5974 38.908 28.5974C38.908 28.5974 38.908 28.5974 38.908 28.5974C38.908 28.5974 38.908 28.5974 38.908 28.5974C38.908 28.5974 38.908 28.5974 38.908 28.5974C38.908 28.5974 38.908 28.5974 38.908 28.5974C38.908 28.5974 38.908 28.5974 38.908 28.5974C38.908 28.5974 38.908 28.5974 38.908 28.5974C38.908 28.5974 38.908 28.5974 38.908 28.5974C38.908 28.5974 38.908 28.5974 38.908 28.5974C38.908 28.5974 38.908 28.5974 38.908 28.5974C38.908 28.5974 38.908 28.5974 38.908 28.5974C38.908 28.5974 38.908 28.5974 38.908 28.5974C38.908 28.5974 38.908 28.5974 38.908 28.5974C38.908 28.5974 38.908 28.5974 38.908 28.5974C38.908 28.5974 38.908 28.5974 38.908 28.5974C38.908 28.5974 38.908 28.5974 38.908 28.5974C38.908 28.5974 38.908 28.5974 38.908 28.5974C38.908 28.5974 38.908 28.5974 38.908 28.5974C38.908 28.5974 38.908 28.5974 38.908 28.5974C38.908 28.5974 38.908 28.5974 38.908 28.5974C38.908 28.5974 38.908 28.5974 38.908 28.5974C38.908 28.5974 38.908 28.5974 38.908 28.5974C38.908 28.5974 38.908 28.5974 38.908 28.5974C38.908 28.5974 38.908 28.5974 38.908 28.5974C38.908 28.5974 38.908 28.5974 38.908 28.5974C38.908 28.5974 38.908 28.5974 38.908 28.5974C38.908 28.5974 38.908 28.5974 38.908 28.5974C38.908 28.5974 38.908 28.5974 38.908 28.5974C38.908 28.5974 38.908 28.5974 38.908 28.5974C38.908 28.5974 38.908 28.5974 38.908 28.5974C38.908 28.5974 38.908 28.5974 38.908 28.5974C38.908 28.5974 38.908 28.5974 38.908 28.5974C38.908 28.5974 38.908 28.5974 38.908 28.5974C38.908 28.5974 38.908 28.5974 38.908 28.5974C38.908 28.5974 38.908 28.5974 38.908 28.5974C38.908 28.5974 38.908 28.5974 38.908 28.5974C38.908 28.5974 38.908 28.5974 38.908 28.5974C38.908 28.5974 38.908 28.5974 38.908 28.5974C38.908 28.5974 38.908 28.5974 38.908 28.5974C38.908 28.5974 38.908 28.5974 38.908 28.5974C38.908 28.5974 38.908 28.5974 38.908 28.5974C38.908 28.5974 38.908 28.5974 38.908 28.5974C38.908 28.5974 38.908 28.5974 38.908 28.5974C38.908 28.5974 38.908 28.5974 38.908 28.5974C38.908 28.5974 38.908 28.5974 38.908 28.5974C38.908 28.5974 38.908 28.5974 38.908 28.5974C38.908 28.5974 38.908 28.5974 38.908 28.5974C38.908 28.5974 38.908 28.5974 38.908 28.5974C38.908 28.5974 38.908 28.5974 38.908 28.5974C38.908 28.5974 38.908 28.5974 38.908 28.5974C38.908 28.5974 38.908 28.5974 38.908 28.5974C38.908 28.5974 38.908 28.5974 38.908 28.5974C38.908 28.5974 38.908 28.5974 38.908 28.5974C38.908 28.5974 38.908 28.5974 38.908 28.5974C38.908 28.5974 38.908 28.5974 38.908 28.5974C38.908 28.5974 38.908 28.5974 38.908 28.5974C38.908 28.5974 38.908 28.5974 38.908 28.5974C38.908 28.5974 38.908 28.5974 38.908 28.5974C38.908 28.5974 38.908 28.5974 38.908 28.5974C38.908 28.5974 38.908 28.5974 38.908 28.5974C38.908 28.5974 38.908 28.5974 38.908 28.5974C38.908 28.5974 38.908 28.5974 38.908 28.5974C38.908 28.5974 38.908 28.5974 38.908 28.5974C38.908 28.5974 38.908 28.5974 38.908 28.5974C38.908 28.5974 38.908 28.5974 38.908 28.5974C38.908 28.5974 38.908 28.5974 38.908 28.5974C38.908 28.5974 38.908 28.5974 38.908 28.5974C38.908 28.5974 38.908 28.5974 38.908 28.5974C38.908 28.5974 38.908 28.5974 38.908 28.5974C38.908 28.5974 38.908 28.5974 38.908 28.5974C38.908 28.5974 38.908 28.5974 38.908 28.5974C38.908 28.5974 38.908 28.5974 38.908 28.5974C38.908 28.5974 38.908 28.5974 38.908 28.5974C38.908 28.5974 38.908 28.5974 38.908 28.5974C38.908 28.5974 38.908 28.5974 38.908 28.5974C38.908 28.5974 38.908 28.5974 38.908 28.5974C38.908 28.5974 38.908 28.5974 38.908 28.5974C38.908 28.5974 38.908 28.5974 38.908 28.5974C38.908 28.5974 38.908 28.5974 38.908 28.5974C38.908 28.5974 38.908 28.5974 38.908 28.5974C38.908 28.5974 38.908 28.5974 38.908 28.5974C38.908 28.5974 38.908 28.5974 38.908 28.5974C38.908 28.5974 38.908 28.5974 38.908 28.5974C38.908 28.5974 38.908 28.5974 38.908 28.5974C38.908 28.5974 38.908 28.5974 38.908 28.5974C38.908 28.5974 38.908 28.5974 38.908 28.5974C38.908 28.5974 38.908 28.5974 38.908 28.5974C38.908 28.5974 38.908 28.5974 38.908 28.5974C38.908 28.5974 38.908 28.5974 38.908 28.5974C38.908 28.5974 38.908 28.5974 38.908 28.5974C38.908 28.5974 38.908 28.5974 38.908 28.5974C38.908 28.5974 38.908 28.5974 38.908 28.5974C38.908 28.5974 38.908 28.5974 38.908 28.5974C38.908 28.5974 38.908 28.5974 38.908 28.5974C38.908 28.5974 38.908 28.5974 38.908 28.5974C38.908 28.5974 38.908 28.5974 38.908 28.5974C38.908 28.5974 38.908 28.5974 38.908 28.5974C38.908 28.5974 38.908 28.5974 38.908 28.5974C38.908 28.5974 38.908 28.5974 38.908 28.5974C38.908 28.5974 38.908 28.5974 38.908 28.5974C38.908 28.5974 38.908 28.5974 38.908 28.5974C38.908 28.5974 38.908 28.5974 38.908 28.5974C38.908 28.5974 38.908 28.5974 38.908 28.5974C38.908 28.5974 38.908 28.5974 38.908 28.5974C38.908 28.5974 38.908 28.5974 38.908 28.5974C38.908 28.5974 38.908 28.5974 38.908 28.5974C38.908 28.5974 38.908 28.5974 38.908 28.5974C38.908 28.5974 38.908 28.5974 38.908 28.5974C38.908 28.5974 38.908 28.5974 38.908 28.5974C38.908 28.5974 38.908 28.5974 38.908 28.5974C38.908 28.5974 38.908 28.5974 38.908 28.5974C38.908 28.5974 38.908 28.5974 38.908 28.5974C38.908 28.5974 38.908 28.5974 38.908 28.5974C38.908 28.5974 38.908 28.5974 38.908 28.5974C38.908 28.5974 38.908 28.5974 38.908 28.5974C38.908 28.5974 38.908 28.5974 38.908 28.5974C38.908 28.5974 38.908 28.5974 38.908 28.5974C38.908 28.5974 38.908 28.5974 38.908 28.5974C38.908 28.5974 38.908 28.5974 38.908 28.5974C38.908 28.5974 38.908 28.5974 38.908 28.5974C38.908 28.5974 38.908 28.5974 38.908 28.5974C38.908 28.5974 38.908 28.5974 38.908 28.5974C38.908 28.5974 38.908 28.5974 38.908 28.5974C38.908 28.5974 38.908 28.5974 38.908 28.5974C38.908 28.5974 38.908 28.5974 38.908 28.5974C38.908 28.5974 38.908 28.5974 38.908 28.5974C38.908 28.5974 38.908 28.5974 38.908 28.5974C38.908 28.5974 38.908 28.5974 38.908 28.5974C38.908 28.5974 38.908 28.5974 38.908 28.5974C38.908 28.5974 38.908 28.5974 38.908 28.5974C38.908 28.5974 38.908 28.5974 38.908 28.5974C38.908 28.5974 38.908 28.5974 38.908 28.5974C38.908 28.5974 38.908 28.5974 38.908 28.5974C38.908 28.5974 38.908 28.5974 38.908 28.5974C38.908 28.5974 38.908 28.5974 38.908 28.5974C38.908 28.5974 38.908 28.5974 38.908 28.5974C38.908 28.5974 38.908 28.5974 38.908 28.5974C38.908 28.5974 38.908 28.5974 38.908 28.5974C38.908 28.5974 38.908 28.5974 38.908 28.5974C38.908 28.5974 38.908 28.5974 38.908 28.5974C38.908 28.5974 38.908 28.5974 38.908 28.5974C38.908 28.5974 38.908 28.5974 38.908 28.5974C38.908 28.5974 38.908 28.5974 38.908 28.5974C38.908 28.5974 38.908 28.5974 38.908 28.5974C38.908 28.5974 38.908 28.5974 38.908 28.5974C38.908 28.5974 38.908 28.5974 38.908 28.5974C38.908 28.5974 38.908 28.5974 38.908 28.5974C38.908 28.5974 38.908 28.5974 38.908 28.5974C38.908 28.5974 38.908 28.5974 38.908 28.5974C38.908 28.5974 38.908 28.5974 38.908 28.5974C38.908 28.5974 38.908 28.5974 38.908 28.5974C38.908 28.5974 38.908 28.5974 38.908 28.5974C38.908 28.5974 38.908 28.5974 38.908 28.5974C38.908 28.5974 38.908 28.5974 38.908 28.5974C38.908 28.5974 38.908 28.5974 38.908 28.5974C38.908 28.5974 38.908 28.5974 38.908 28.5974C38.908 28.5974 38.908 28.5974 38.908 28.5974C38.908 28.5974 38.908 28.5974 38.908 28.5974C38.908 28.5974 38.908 28.5974 38.908 28.5974C38.908 28.5974 38.908 28.5974 38.908 28.5974C38.908 28.5974 38.908 28.5974 38.908 28.5974C38.908 28.5974 38.908 28.5974 38.908 28.5974C38.908 28.5974 38.908 28.5974 38.908 28.5974C38.908 28.5974 38.908 28.5974 38.908 28.5974C38.908 28.5974 38.908 28.5974 38.908 28.5974C38.908 28.5974 38.908 28.5974 38.908 28.5974C38.908 28.5974 38.908 28.5974 38.908 28.5974C38.908 28.5974 38.908 28.5974 38.908 28.5974C38.908 28.5974 38.908 28.5974 38.908 28.5974C38.908 28.5974 38.908 28.5974 38.908 28.5974C38.908 28.5974 38.908 28.5974 38.908 28.5974C38.908 28.5974 38.908 28.5974 38.908 28.5974C38.908 28.5974 38.908 28.5974 38.908 28.5974C38.908 28.5974 38.908 28.5974 38.908 28.5974C38.908 28.5974 38.908 28.5974 38.908 28.5974C38.908 28.5974 38.908 28.5974 38.908 28.5974C38.908 28.5974 38.908 28.5974 38.908 28.5974C38.908 28.5974 38.908 28.5974 38.908 28.5974C38.908 28.5974 38.908 28.5974 38.908 28.5974C38.908 28.5974 38.908 28.5974 38.908 28.5974C38.908 28.5974 38.908 28.5974 38.908 28.5974C38.908 28.5974 38.908 28.5974 38.908 28.5974C38.908 28.5974 38.908 28.5974 38.908 28.5974C38.908 28.5974 38.908 28.5974 38.908 28.5974C38.908 28.5974 38.908 28.5974 38.908 28.5974C38.908 28.5974 38.908 28.5974 38.908 28.5974C38.908 28.5974 38.908 28.5974 38.908 28.5974C38.908 28.5974 38.908 28.5974 38.908 28.5974C38.908 28.5974 38.908 28.5974 38.908 28.5974C38.908 28.5974 38.908 28.5974 38.908 28.5974C38.908 28.5974 38.908 28.5974 38.908 28.5974C38.908 28.5974 38.908 28.5974 38.908 28.5974C38.908 28.5974 38.908 28.5974 38.908 28.5974C38.908 28.5974 38.908 28.5974 38.908 28.5974C38.908 28.5974 38.908 28.5974 38.908 28.5974C38.908 28.5974 38.908 28.5974 38.908 28.5974C38.908 28.5974 38.908 28.5974 38.908 28.5974C38.908 28.5974 38.908 28.5974 38.908 28.5974C38.908 28.5974 38.908 28.5974 38.908 28.5974C38.908 28.5974 38.908 28.5974 38.908 28.5974C38.908 28.5974 38.908 28.5974 38.908 28.5974C38.908 28.5974 38.908 28.5974 38.908 28.5974C38.908 28.5974 38.908 28.5974 38.908 28.5974C38.908 28.5974 38.908 28.5974 38.908 28.5974C38.908 28.5974 38.908 28.5974 38.908 28.5974C38.908 28.5974 38.908 28.5974 38.908 28.5974C38.908 28.5974 38.908 28.5974 38.908 28.5974C38.908 28.5974 38.908 28.5974 38.908 28.5974C38.908 28.5974 38.908 28.5974 38.908 28.5974C38.908 28.5974 38.908 28.5974 38.908 28.5974C38.908 28.5974 38.908 28.5974 38.908 28.5974C38.908 28.5974 38.908 28.5974 38.908 28.5974C38.908 28.5974 38.908 28.5974 38.908 28.5974C38.908 28.5974 38.908 28.5974 38.908 28.5974C38.908 28.5974 38.908 28.5974 38.908 28.5974C38.908 28.5974 38.908 28.5974 38.908 28.5974C38.908 28.5974 38.908 28.5974 38.908 28.5974C38.908 28.5974 38.908 28.5974 38.908 28.5974C38.908 28.5974 38.908 28.5974 38.908 28.5974C38.908 28.5974 38.908 28.5974 38.908 28.5974C38.908 28.5974 38.908 28.5974 38.908 28.5974C38.908 28.5974 38.908 28.5974 38.908 28.5974C38.908 28.5974 38.908 28.5974 38.908 28.5974C38.908 28.5974 38.908 28.5974 38.908 28.5974C38.908 28.5974 38.908 28.5974 38.908 28.5974C38.908 28.5974 38.908 28.5974 38.908 28.5974C38.908 28.5974 38.908 28.5974 38.908 28.5974C38.908 28.5974 38.908 28.5974 38.908 28.5974C38.908 28.5974 38.908 28.5974 38.908 28.5974C38.908 28.5974 38.908 28.5974 38.908 28.5974C38.908 28.5974 38.908 28.5974 38.908 28.5974C38.908 28.5974 38.908 28.5974 38.908 28.5974C38.908 28.5974 38.908 28.5974 38.908 28.5974C38.908 28.5974 38.908 28.5974 38.908 28.5974C38.908 28.5974 38.908 28.5974 38.908 28.5974C38.908 28.5974 38.908 28.5974 38.908 28.5974C38.908 28.5974 38.908 28.5974 38.908 28.5974C38.908 28.5974 38.908 28.5974 38.908 28.5974C38.908 28.5974 38.908 28.5974 38.908 28.5974C38.908 28.5974 38.908 28.5974 38.908 28.5974C38.908 28.5974 38.908 28.5974 38.908 28.5974C38.908 28.5974 38.908 28.5974 38.908 28.5974C38.908 28.5974 38.908 28.5974 38.908 28.5974C38.908 28.5974 38.908 28.5974 38.908 28.5974C38.908 28.5974 38.908 28.5974 38.908 28.5974C38.908 28.5974 38.908 28.5974 38.908 28.5974C38.908 28.5974 38.908 28.5974 38.908 28.5974C38.908 28.5974 38.908 28.5974 38.908 28.5974C38.908 28.5974 38.908 28.5974 38.908 28.5974C38.908 28.5974 38.908 28.5974 38.908 28.5974C38.908 28.5974 38.908 28.5974 38.908 28.5974C38.908 28.5974 38.908 28.5974 38.908 28.5974C38.908 28.5974 38.908 28.5974 38.908 28.5974C38.908 28.5974 38.908 28.5974 38.908 28.5974C38.908 28.5974 38.908 28.5974 38.908 28.5974C38.908 28.5974 38.908 28.5974 38.908 28.5974C38.908 28.5974 38.908 28.5974 38.908 28.5974C38.908 28.5974 38.908 28.5974 38.908 28.5974C38.908 28.5974 38.908 28.5974 38.908 28.5974C38.908 28.5974 38.908 28.5974 38.908 28.5974C38.908 28.5974 38.908 28.5974 38.908 28.5974C38.908 28.5974 38.908 28.5974 38.908 28.5974C38.908 28.5974 38.908 28.5974 38.908 28.5974C38.908 28.5974 38.908 28.5974 38.908 28.5974C38.908 28.5974 38.908 28.5974 38.908 28.5974C38.908 28.5974 38.908 28.5974 38.908 28.5974C38.908 28.5974 38.908 28.5974 38.908 28.5974C38.908 28.5974 38.908 28.5974 38.908 28.5974C38.908 28.5974 38.908 28.5974 38.908 28.5974C38.908 28.5974 38.908 28.5974 38.908 28.5974C38.908 28.5974 38.908 28.5974 38.908 28.5974C38.908 28.5974 38.908 28.5974 38.908 28.5974C38.908 28.5974 38.908 28.5974 38.908 28.5974C38.908 28.5974 38.908 28.5974 38.908 28.5974C38.908 28.5974 38.908 28.5974 38.908 28.5974C38.908 28.5974 38.908 28.5974 38.908 28.5974C38.908 28.5974 38.908 28.5974 38.908 28.5974C38.908 28.5974 38.908 28.5974 38.908 28.5974C38.908 28.5974 38.908 28.5974 38.908 28.5974C38.908 28.5974 38.908 28.5974 38.908 28.5974C38.908 28.5974 38.908 28.5974 38.908 28.5974C38.908 28.5974 38.908 28.5974 38.908 28.5974C38.908 28.5974 38.908 28.5974 38.908 28.5974C38.908 28.5974 38.908 28.5974 38.908 28.5974C38.908 28.5974 38.908 28.5974 38.908 28.5974C38.908 28.5974 38.908 28.5974 38.908 28.5974C38.908 28.5974 38.908 28.5974 38.908 28.5974C38.908 28.5974 38.908 28.5974 38.908 28.5974C38.908 28.5974 38.908 28.5974 38.908 28.5974C38.908 28.5974 38.908 28.5974 38.908 28.5974C38.908 28.5974 38.908 28.5974 38.908 28.5974C38.908 28.5974 38.908 28.5974 38.908 28.5974C38.908 28.5974 38.908 28.5974 38.908 28.5974C38.908 28.5974 38.908 28.5974 38.908 28.5974C38.908 28.5974 38.908 28.5974 38.908 28.5974C38.908 28.5974 38.908 28.5974 38.908 28.5974C38.908 28.5974 38.908 28.5974 38.908 28.5974C38.908 28.5974 38.908 28.5974 38.908 28.5974C38.908 28.5974 38.908 28.5974 38.908 28.5974C38.908 28.5974 38.908 28.5974 38.908 28.5974C38.908 28.5974 38.908 28.5974 38.908 28.5974C38.908 28.5974 38.908 28.5974 38.908 28.5974C38.908 28.5974 38.908 28.5974 38.908 28.5974C38.908 28.5974 38.908 28.5974 38.908 28.5974C38.908 28.5974 38.908 28.5974 38.908 28.5974C38.908 28.5974 38.908 28.5974 38.908 28.5974C38.908 28.5974 38.908 28.5974 38.908 28.5974C38.908 28.5974 38.908 28.5974 38.908 28.5974C38.908 28.5974 38.908 28.5974 38.908 28.5974C38.908 28.5974 38.908 28.5974 38.908 28.5974C38.908 28.5974 38.908 28.5974 38.908 28.5974C38.908 28.5974 38.908 28.5974 38.908 28.5974C38.908 28.5974 38.908 28.5974 38.908 28.5974C38.908 28.5974 38.908 28.5974 38.908 28.5974C38.908 28.5974 38.908 28.5974 38.908 28.5974C38.908 28.5974 38.908 28.5974 38.908 28.5974C38.908 28.5974 38.908 28.5974 38.908 28.5974C38.908 28.5974 38.908 28.5974 38.908 28.5974C38.908 28.5974 38.908 28.5974 38.908 28.5974C38.908 28.5974 38.908 28.5974 38.908 28.5974C38.908 28.5974 38.908 28.5974 38.908 28.5974C38.908 28.5974 38.908 28.5974 38.908 28.5974C38.908 28.5974 38.908 28.5974 38.908 28.5974C38.908 28.5974 38.908 28.5974 38.908 28.5974C38.908 28.5974 38.908 28.5974 38.908 28.5974C38.908 28.5974 38.908 28.5974 38.908 28.5974C38.908 28.5974 38.908 28.5974 38.908 28.5974C38.908 28.5974 38.908 28.5974 38.908 28.5974C38.908 28.5974 38.908 28.5974 38.908 28.5974C38.908 28.5974 38.908 28.5974 38.908 28.5974C38.908 28.5974 38.908 28.5974 38.908 28.5974C38.908 28.5974 38.908 28.5974 38.908 28.5974C38.908 28.5974 38.908 28.5974 38.908 28.5974C38.908 28.5974 38.908 28.5974 38.908 28.5974C38.908 28.5974 38.908 28.5974 38.908 28.5974C38.908 28.5974 38.908 28.5974 38.908 28.5974C38.908 28.5974 38.908 28.5974 38.908 28.5974C38.908 28.5974 38.908 28.5974 38.908 28.5974C38.908 28.5974 38.908 28.5974 38.908 28.5974C38.908 28.5974 38.908 28.5974 38.908 28.5974C38.908 28.5974 38.908 28.5974 38.908 28.5974C38.908 28.5974 38.908 28.5974 38.908 28.5974C38.908 28.5974 38.908 28.5974 38.908 28.5974C38.908 28.5974 38.908 28.5974 38.908 28.5974C38.908 28.5974 38.908 28.5974 38.908 28.5974C38.908 28.5974 38.908 28.5974 38.908 28.5974C38.908 28.5974 38.908 28.5974 38.908 28.5974C38.908 28.5974 38.908 28.5974 38.908 28.5974C38.908 28.5974 38.908 28.5974 38.908 28.5974C38.908 28.5974 38.908 28.5974 38.908 28.5974C38.908 28.5974 38.908 28.5974 38.908 28.5974C38.908 28.5974 38.908 28.5974 38.908 28.5974C38.908 28.5974 38.908 28.5974 38.908 28.5974C38.908 28.5974 38.908 28.5974 38.908 28.5974C38.908 28.5974 38.908 28.5974 38.908 28.5974C38.908 28.5974 38.908 28.5974 38.908 28.5974C38.908 28.5974 38.908 28.5974 38.908 28.5974C38.908 28.5974 38.908 28.5974 38.908 28.5974C38.908 28.5974 38.908 28.5974 38.908 28.5974C38.908 28.5974 38.908 28.5974 38.908 28.5974C38.908 28.5974 38.908 28.5974 38.908 28.5974C38.908 28.5974 38.908 28.5974 38.908 28.5974C38.908 28.5974 38.908 28.5974 38.908 28.5974C38.908 28.5974 38.908 28.5974 38.908 28.5974C38.908 28.5974 38.908 28.5974 38.908 28.5974C38.908 28.5974 38.908 28.5974 38.908 28.5974C38.908 28.5974 38.908 28.5974 38.908 28.5974C38.908 28.5974 38.908 28.5974 38.908 28.5974C38.908 28.5974 38.908 28.5974 38.908 28.5974C38.908 28.5974 38.908 28.5974 38.908 28.5974C38.908 28.5974 38.908 28.5974 38.908 28.5974C38.908 28.5974 38.908 28.5974 38.908 28.5974C38.908 28.5974 38.908 28.5974 38.908 28.5974C38.908 28.5974 38.908 28.5974 38.908 28.5974C38.908 28.5974 38.908 28.5974 38.908 28.5974C38.908 28.5974 38.908 28.5974 38.908 28.5974C38.908 28.5974 38.908 28.5974 38.908 28.5974C38.908 28.5974 38.908 28.5974 38.908 28.5974C38.908 28.5974 38.908 28.5974 38.908 28.5974C38.908 28.5974 38.908 28.5974 38.908 28.5974C38.908 28.5974 38.908 28.5974 38.908 28.5974C38.908 28.5974 38.908 28.5974 38.908 28.5974C38.908 28.5974 38.908 28.5974 38.908 28.5974C38.908 28.5974 38.908 28.5974 38.908 28.5974C38.908 28.5974 38.908 28.5974 38.908 28.5974C38.908 28.5974 38.908 28.5974 38.908 28.5974C38.908 28.5974 38.908 28.5974 38.908 28.5974C38.908 28.5974 38.908 28.5974 38.908 28.5974C38.908 28.5974 38.908 28.5974 38.908 28.5974C38.908 28.5974 38.908 28.5974 38.9081 28.5974C38.9081 28.5974 38.9081 28.5974 38.9081 28.5974C38.9081 28.5974 38.9081 28.5974 38.9081 28.5974C38.9081 28.5974 38.9081 28.5974 38.9081 28.5974C38.9081 28.5974 38.9081 28.5974 38.9081 28.5974L39.8588 26.2205ZM40.6484 27.6039C41.2215 23.8847 42.4818 20.3046 44.3649 17.0466L42.1484 15.7656C40.1064 19.2986 38.7398 23.1809 38.1183 27.214L40.6484 27.6039ZM44.3659 17.0448C46.3882 13.5327 49.0939 10.4616 52.3232 8.01289L50.7764 5.97302C47.2745 8.62842 44.3404 11.9588 42.1474 15.7674L44.3659 17.0448ZM52.3514 5.99507C43.3199 -1.26019 30.8875 -3.3728 19.7795 0.947534L20.7075 3.33342C30.9449 -0.648323 42.4151 1.29667 50.7481 7.99085L52.3514 5.99507ZM18.9739 2.30288L18.9739 2.30337L21.5132 1.97857L21.5132 1.97808L18.9739 2.30288Z" fill="white" fill-opacity="0.5" mask="url(#path-1-inside-1)"/>
<mask id="path-3-inside-2" fill="white">
<path fill-rule="evenodd" clip-rule="evenodd" d="M59.8085 15.848C57.8492 12.4509 55.2748 9.44809 52.2168 6.99296C61.0693 0.287037 73.0706 -1.42689 83.669 3.05311C84.886 3.56365 86.0702 4.14931 87.2146 4.80672C102.372 13.5581 107.567 32.9411 98.8152 48.0989C90.0638 63.2566 70.6808 68.4496 55.523 59.6982C54.1138 58.8853 52.7688 57.9658 51.5 56.9475C60.6789 50.0086 65.1947 38.7574 63.8136 27.7379C63.287 23.5467 61.9251 19.5036 59.8085 15.848Z"/>
</mask>
<path fill-rule="evenodd" clip-rule="evenodd" d="M59.8085 15.848C57.8492 12.4509 55.2748 9.44809 52.2168 6.99296C61.0693 0.287037 73.0706 -1.42689 83.669 3.05311C84.886 3.56365 86.0702 4.14931 87.2146 4.80672C102.372 13.5581 107.567 32.9411 98.8152 48.0989C90.0638 63.2566 70.6808 68.4496 55.523 59.6982C54.1138 58.8853 52.7688 57.9658 51.5 56.9475C60.6789 50.0086 65.1947 38.7574 63.8136 27.7379C63.287 23.5467 61.9251 19.5036 59.8085 15.848Z" fill="#ABBD81"/>
<path d="M52.2168 6.99296L51.4439 5.97265L50.1357 6.96363L51.4155 7.99108L52.2168 6.99296ZM59.8085 15.848L58.6997 16.4875L58.7008 16.4894L59.8085 15.848ZM83.669 3.05311L83.1706 4.23211L83.1738 4.23347L83.669 3.05311ZM87.2146 4.80672L87.8546 3.6982L87.8522 3.69682L87.2146 4.80672ZM98.8152 48.0989L99.9237 48.7389L99.9237 48.7389L98.8152 48.0989ZM55.523 59.6982L56.163 58.5897L56.1626 58.5895L55.523 59.6982ZM51.5 56.9475L50.7281 55.9264L49.4173 56.9174L50.6989 57.9458L51.5 56.9475ZM63.8136 27.7379L65.0837 27.5787L65.0836 27.5783L63.8136 27.7379ZM51.4155 7.99108C54.3496 10.3468 56.8197 13.228 58.6997 16.4875L60.9173 15.2085C58.8786 11.6738 56.2 8.5494 53.0181 5.99484L51.4155 7.99108ZM84.1673 1.87412C73.1379 -2.78809 60.6531 -1.00347 51.4439 5.97265L52.9897 8.01326C61.4855 1.57754 73.0032 -0.0656877 83.1706 4.23211L84.1673 1.87412ZM87.8522 3.69682C86.6618 3.013 85.43 2.4038 84.1641 1.87276L83.1738 4.23347C84.342 4.72349 85.4785 5.28562 86.577 5.91662L87.8522 3.69682ZM99.9237 48.7389C109.029 32.9689 103.625 12.803 87.8546 3.69821L86.5746 5.91523C101.12 14.3131 106.105 32.9134 97.7067 47.4589L99.9237 48.7389ZM54.883 60.8067C70.653 69.9115 90.8189 64.5089 99.9237 48.7389L97.7067 47.4589C89.3088 62.0044 70.7086 66.9876 56.163 58.5897L54.883 60.8067ZM50.6989 57.9458C52.0187 59.0049 53.4176 59.9615 54.8835 60.807L56.1626 58.5895C54.8099 57.8092 53.519 56.9266 52.3011 55.9492L50.6989 57.9458ZM62.5435 27.8971C63.869 38.4727 59.5337 49.2698 50.7281 55.9264L52.2719 57.9686C61.8241 50.7475 66.5204 39.0422 65.0837 27.5787L62.5435 27.8971ZM58.7008 16.4894C60.7316 19.9969 62.0383 23.8761 62.5436 27.8975L65.0836 27.5783C64.5357 23.2173 63.1186 19.0104 60.9162 15.2066L58.7008 16.4894Z" fill="white" fill-opacity="0.5" mask="url(#path-3-inside-2)"/>
<mask id="path-5-inside-3" fill="white">
<path fill-rule="evenodd" clip-rule="evenodd" d="M43.5981 16.4278C45.705 12.7669 48.525 9.56605 51.8913 7.01472C54.9493 9.47014 57.5241 12.4729 59.4842 15.8698C61.5969 19.5194 62.9577 23.5549 63.4867 27.7385C63.4871 27.7383 63.4876 27.7381 63.4881 27.7379C64.8692 38.7574 60.3534 50.0086 51.1732 56.9475C42.2427 49.7795 38.0251 38.4144 39.7236 27.409C39.7251 27.4096 39.7265 27.4102 39.7279 27.4108C40.3266 23.5417 41.639 19.8176 43.5981 16.4278Z"/>
</mask>
<path fill-rule="evenodd" clip-rule="evenodd" d="M43.5981 16.4278C45.705 12.7669 48.525 9.56605 51.8913 7.01472C54.9493 9.47014 57.5241 12.4729 59.4842 15.8698C61.5969 19.5194 62.9577 23.5549 63.4867 27.7385C63.4871 27.7383 63.4876 27.7381 63.4881 27.7379C64.8692 38.7574 60.3534 50.0086 51.1732 56.9475C42.2427 49.7795 38.0251 38.4144 39.7236 27.409C39.7251 27.4096 39.7265 27.4102 39.7279 27.4108C40.3266 23.5417 41.639 19.8176 43.5981 16.4278Z" fill="#E15B64"/>
<path d="M51.8913 7.01472L52.6926 6.01663L51.914 5.39141L51.1181 5.99461L51.8913 7.01472ZM43.5981 16.4278L44.7063 17.0684L44.7075 17.0663L43.5981 16.4278ZM59.4842 15.8698L58.3755 16.5095L58.3764 16.511L59.4842 15.8698ZM63.4867 27.7385L62.2168 27.899L62.4226 29.527L63.9515 28.9311L63.4867 27.7385ZM63.4881 27.7379L64.7582 27.5787L64.5539 25.9487L63.0233 26.5453L63.4881 27.7379ZM51.1732 56.9475L50.372 57.9457L51.1496 58.5699L51.9451 57.9686L51.1732 56.9475ZM39.7236 27.409L40.22 26.2291L38.7087 25.5934L38.4586 27.2137L39.7236 27.409ZM39.7279 27.4108L39.2317 28.5906L40.7423 29.226L40.9929 27.6065L39.7279 27.4108ZM51.1181 5.99461C47.6154 8.64938 44.681 11.9801 42.4887 15.7894L44.7075 17.0663C46.7289 13.5538 49.4347 10.4827 52.6644 8.03483L51.1181 5.99461ZM60.5929 15.23C58.5534 11.6957 55.8745 8.57142 52.6926 6.01663L51.0899 8.0128C54.0242 10.3689 56.4947 13.2501 58.3755 16.5095L60.5929 15.23ZM64.7566 27.5779C64.2062 23.2249 62.7902 19.026 60.592 15.2285L58.3764 16.511C60.4035 20.0128 61.7093 23.8849 62.2168 27.899L64.7566 27.5779ZM63.0233 26.5453C63.0238 26.5451 63.0241 26.545 63.0238 26.5451C63.0237 26.5451 63.0228 26.5455 63.0218 26.5459L63.9515 28.9311C63.951 28.9313 63.9506 28.9314 63.951 28.9313C63.9511 28.9312 63.952 28.9309 63.953 28.9305L63.0233 26.5453ZM51.9451 57.9686C61.4986 50.7475 66.1949 39.0422 64.7582 27.5787L62.2181 27.8971C63.5435 38.4727 59.2082 49.2697 50.4014 55.9264L51.9451 57.9686ZM38.4586 27.2137C36.6917 38.6617 41.0772 50.4854 50.372 57.9457L51.9744 55.9493C43.4081 49.0736 39.3584 38.167 40.9887 27.6042L38.4586 27.2137ZM40.2242 26.2309C40.2226 26.2302 40.2218 26.2299 40.22 26.2291L39.2273 28.5888C39.2283 28.5892 39.2304 28.5901 39.2317 28.5906L40.2242 26.2309ZM42.4899 15.7873C40.4514 19.3143 39.0859 23.1893 38.463 27.215L40.9929 27.6065C41.5673 23.8942 42.8265 20.3208 44.7063 17.0684L42.4899 15.7873Z" fill="white" fill-opacity="0.5" mask="url(#path-5-inside-3)"/>
</svg>