<svg viewBox="0 0 29 30" fill="none" xmlns="http://www.w3.org/2000/svg">
<path d="M16.684 8.10526C14.4208 8.10526 12.6313 6.26316 12.6313 4.05263C12.6313 1.84211 14.4735 0 16.684 0C18.8945 0 20.7366 1.84211 20.7366 4.05263C20.7366 6.26316 18.8945 8.10526 16.684 8.10526ZM16.684 1.31579C15.1577 1.31579 13.9471 2.52632 13.9471 4.05263C13.9471 5.57895 15.1577 6.78947 16.684 6.78947C18.2103 6.78947 19.4208 5.57895 19.4208 4.05263C19.4208 2.52632 18.2103 1.31579 16.684 1.31579Z" fill="#10585E"/>
<path d="M11.421 18.7368H4.21051C3.94735 18.7368 3.68419 18.5789 3.57893 18.3158L0.5263 10.8421C0.368405 10.5263 0.5263 10.1053 0.894721 9.99999C1.21051 9.8421 1.63156 9.99999 1.73683 10.3684L4.63156 17.421H11.421C11.7895 17.421 12.0526 17.7368 12.0526 18.0526C12.0526 18.3684 11.7895 18.7368 11.421 18.7368Z" fill="#10585E"/>
<path d="M13.3684 20.4737H0.631579C0.263158 20.4737 0 20.1579 0 19.8421C0 19.5263 0.31579 19.2105 0.631579 19.2105H13.3684C13.7368 19.2105 14 19.5263 14 19.8421C14 20.1579 13.7368 20.4737 13.3684 20.4737Z" fill="#10585E"/>
<path d="M11.263 30C11.1578 30 11.1051 30 11.0525 30C10.0525 29.8421 9.42092 28.5263 9.57881 26.8947C9.8946 23.3158 11.842 21.0526 15.263 20.2632C16.4209 20 16.2104 16.5263 16.0525 14.2105C15.9472 12.3158 15.842 10.6842 16.2104 9.78947C16.7893 8.47368 18.8946 6.89473 21.1578 7.63158C23.3157 8.31579 25.4735 11.6316 25.263 15.4737C24.9999 20.5789 22.4735 23.4211 20.1051 23.5789C14.7367 23.9474 13.842 25.6842 13.4209 27.3158C12.842 29.6316 11.842 30 11.263 30ZM19.9472 8.78947C18.6314 8.78947 17.6314 9.78947 17.4209 10.3158C17.1578 10.8947 17.263 12.5789 17.3683 14.1053C17.5788 17.3684 17.7893 21 15.5788 21.5263C12.7367 22.1579 11.1578 24 10.8946 27C10.7893 28.1053 11.1578 28.6842 11.3157 28.7368C11.4209 28.7368 11.842 28.3684 12.2104 27C13.3157 22.7368 17.7367 22.4737 20.0525 22.2632C22.263 22.1053 23.7893 18.6316 23.9472 15.4211C24.1051 12.1053 22.2104 9.36842 20.7367 8.89474C20.4735 8.78947 20.2104 8.78947 19.9472 8.78947Z" fill="#10585E"/>
<path d="M25.0527 25.3684H19.1579C18.7895 25.3684 18.5264 25.0526 18.5264 24.7369C18.5264 24.4211 18.8422 24.1053 19.1579 24.1053H24.5264L27.3685 9.52632C27.4211 9.1579 27.7895 8.94738 28.1579 9.00001C28.5264 9.05264 28.7369 9.42106 28.6843 9.78948L25.7369 24.8421C25.6316 25.1053 25.3685 25.3684 25.0527 25.3684Z" fill="#10585E"/>
<path d="M10.3684 17.1052C10.1579 17.1052 9.94733 17.0526 9.7368 17C9.26312 16.8421 8.84206 16.4736 8.57891 16V15.9473C8.36838 15.4736 8.31575 14.9473 8.47364 14.421C8.63154 13.8947 8.99996 13.5263 9.47364 13.2631L16.3157 9.68418C16.6315 9.52628 17.0526 9.63154 17.2105 9.94733C17.3684 10.2631 17.2631 10.6842 16.9473 10.8421L10.1052 14.421C9.94733 14.5263 9.84206 14.6315 9.78943 14.7894C9.7368 14.9473 9.7368 15.1052 9.84207 15.2631V15.3158C9.99996 15.6315 10.3684 15.7894 10.7368 15.5789L16.3157 12.6315C16.6315 12.4736 17.0526 12.5789 17.2105 12.8947C17.3684 13.2105 17.2631 13.6315 16.9473 13.7894L11.3684 16.7368C11 17.0526 10.6842 17.1052 10.3684 17.1052Z" fill="#10585E"/>
</svg>
