<svg xmlns="http://www.w3.org/2000/svg" xmlns:xlink="http://www.w3.org/1999/xlink" version="1.1" x="0px" y="0px" viewBox="0 0 100 125" style="enable-background:new 0 0 100 100;" xml:space="preserve">
<g>
<g>
<path d="M49.3,0C21.8,0.4-0.4,23.1,0,50.7c0.4,27.6,23.1,49.7,50.7,49.3c27.6-0.4,49.7-23.1,49.3-50.7C99.6,21.8,76.9-0.4,49.3,0z     M50.6,97.6C24.4,98,2.8,76.9,2.4,50.6C2,24.4,23.1,2.8,49.4,2.4c26.2-0.4,47.9,20.7,48.2,47C98,75.6,76.9,97.2,50.6,97.6z"/></g><g><path d="M55.7,38.4c-4.3,0-7.7-3.5-7.7-7.7s3.5-7.7,7.7-7.7s7.7,3.5,7.7,7.7S59.9,38.4,55.7,38.4z M55.7,25.5    c-2.9,0-5.2,2.3-5.2,5.2s2.3,5.2,5.2,5.2s5.2-2.3,5.2-5.2S58.6,25.5,55.7,25.5z"/>
</g>
<g>
<path d="M45.7,58.6H32c-0.5,0-1-0.3-1.2-0.8L25,43.6c-0.3-0.6,0-1.4,0.7-1.6c0.6-0.3,1.4,0,1.6,0.7l5.5,13.4h12.9    c0.7,0,1.2,0.6,1.2,1.2S46.4,58.6,45.7,58.6z"/>
</g>
<g><path d="M49.4,61.9H25.2c-0.7,0-1.2-0.6-1.2-1.2s0.6-1.2,1.2-1.2h24.2c0.7,0,1.2,0.6,1.2,1.2S50.1,61.9,49.4,61.9z"/></g><g><path d="M45.4,80c-0.2,0-0.3,0-0.4,0c-1.9-0.3-3.1-2.8-2.8-5.9C42.8,67.3,46.5,63,53,61.5c2.2-0.5,1.8-7.1,1.5-11.5    c-0.2-3.6-0.4-6.7,0.3-8.4c1.1-2.5,5.1-5.5,9.4-4.1l0,0c4.1,1.3,8.2,7.6,7.8,14.9c-0.5,9.7-5.3,15.1-9.8,15.4    c-10.2,0.7-11.9,4-12.7,7.1C48.4,79.3,46.5,80,45.4,80z M61.9,39.7c-2.5,0-4.4,1.9-4.8,2.9c-0.5,1.1-0.3,4.3-0.1,7.2    c0.4,6.2,0.8,13.1-3.4,14.1c-5.4,1.2-8.4,4.7-8.9,10.4c-0.2,2.1,0.5,3.2,0.8,3.3c0.2,0,1-0.7,1.7-3.3c2.1-8.1,10.5-8.6,14.9-9    c4.2-0.3,7.1-6.9,7.4-13c0.3-6.3-3.3-11.5-6.1-12.4l0,0C62.9,39.7,62.4,39.7,61.9,39.7z"/></g><g><path d="M71.6,71.2H60.4c-0.7,0-1.2-0.6-1.2-1.2s0.6-1.2,1.2-1.2h10.2L76,41.1c0.1-0.7,0.8-1.1,1.5-1c0.7,0.1,1.1,0.8,1,1.5    l-5.6,28.6C72.7,70.7,72.2,71.2,71.6,71.2z"/></g><g><path d="M43.7,55.5c-0.4,0-0.8-0.1-1.2-0.2c-0.9-0.3-1.7-1-2.2-1.9l0-0.1c-0.4-0.9-0.5-1.9-0.2-2.9s1-1.7,1.9-2.2l13-6.8    c0.6-0.3,1.4-0.1,1.7,0.5c0.3,0.6,0.1,1.4-0.5,1.7l-13,6.8c-0.3,0.2-0.5,0.4-0.6,0.7c-0.1,0.3-0.1,0.6,0.1,0.9l0,0.1    c0.3,0.6,1,0.9,1.7,0.5l10.6-5.6c0.6-0.3,1.4-0.1,1.7,0.5c0.3,0.6,0.1,1.4-0.5,1.7l-10.6,5.6C44.9,55.4,44.3,55.5,43.7,55.5z"/></g></g><text x="0" y="115" fill="#000000" font-size="5px" font-weight="bold" font-family="'Helvetica Neue', Helvetica, Arial-Unicode, Arial, Sans-serif">Created by Wing</text><text x="0" y="120" fill="#000000" font-size="5px" font-weight="bold" font-family="'Helvetica Neue', Helvetica, Arial-Unicode, Arial, Sans-serif" >from the Noun Project</text></svg>