<svg xmlns="http://www.w3.org/2000/svg" width="45" height="51" viewBox="0 0 45 51" fill="none">
<path d="M4.76911 48.14C2.23044 48.14 0.961109 47.3187 0.961109 45.676V41.378C0.961109 39.642 2.23044 38.774 4.76911 38.774C7.33578 38.774 8.61911 39.6373 8.61911 41.364V45.676C8.61911 46.5533 8.26444 47.1833 7.55511 47.566C6.84578 47.9487 5.91711 48.14 4.76911 48.14ZM4.79711 47.23C6.46778 47.23 7.30311 46.7073 7.30311 45.662V41.336C7.30311 40.216 6.46311 39.656 4.78311 39.656C3.97111 39.656 3.34578 39.782 2.90711 40.034C2.47778 40.286 2.26311 40.72 2.26311 41.336V45.662C2.26311 46.7073 3.10778 47.23 4.79711 47.23ZM12.9831 48.14C12.1151 48.14 11.5037 47.986 11.1491 47.678C10.8037 47.3607 10.6311 46.866 10.6311 46.194V41.224H11.8911V46.124C11.8911 46.3013 11.9051 46.446 11.9331 46.558C11.9704 46.6607 12.0311 46.768 12.1151 46.88C12.2831 47.1227 12.6937 47.244 13.3471 47.244C14.0377 47.244 14.5231 47.1787 14.8031 47.048C15.0737 46.9173 15.2091 46.6793 15.2091 46.334V41.224H16.4691V48H15.2091V47.174C15.0877 47.818 14.3457 48.14 12.9831 48.14ZM21.4985 48.14C20.9198 48.14 20.4671 48.0793 20.1405 47.958C19.8138 47.8273 19.5758 47.6127 19.4265 47.314C19.2865 47.006 19.2165 46.5767 19.2165 46.026V42.05H17.7045V41.224H19.2165V39.124H20.4905V41.224H22.9125V42.05H20.4905V46.096C20.4905 46.432 20.5278 46.684 20.6025 46.852C20.6865 47.02 20.8265 47.1413 21.0225 47.216C21.2278 47.2813 21.5218 47.314 21.9045 47.314C22.0258 47.314 22.3618 47.2767 22.9125 47.202V48.028C22.4365 48.1027 21.9651 48.14 21.4985 48.14ZM24.2893 41.224H25.5353V41.952H25.5493C25.6519 41.3733 26.4219 41.084 27.8593 41.084C28.7179 41.084 29.3666 41.266 29.8053 41.63C30.2439 41.9847 30.4633 42.442 30.4633 43.002V45.788C30.4633 46.1893 30.4026 46.5393 30.2813 46.838C30.1693 47.1367 30.0199 47.37 29.8333 47.538C29.6653 47.6967 29.4319 47.8227 29.1333 47.916C28.8439 48.0093 28.5546 48.07 28.2653 48.098C28.0039 48.126 27.6866 48.14 27.3133 48.14C26.9026 48.14 26.5246 48.0933 26.1793 48C25.8433 47.8973 25.6333 47.7527 25.5493 47.566V50.912H24.2893V41.224ZM27.3413 47.286C27.8266 47.286 28.1953 47.2533 28.4473 47.188C28.7086 47.1133 28.8953 46.9827 29.0073 46.796C29.1193 46.6093 29.1753 46.3247 29.1753 45.942V43.45C29.1753 43.03 29.1193 42.7173 29.0073 42.512C28.8953 42.3067 28.7086 42.1713 28.4473 42.106C28.1953 42.0313 27.8219 41.994 27.3273 41.994C26.8326 41.994 26.4639 42.0313 26.2213 42.106C25.9786 42.1713 25.8059 42.3067 25.7033 42.512C25.6006 42.708 25.5493 43.0207 25.5493 43.45V45.942C25.5493 46.3247 25.6006 46.6093 25.7033 46.796C25.8153 46.9827 25.9973 47.1133 26.2493 47.188C26.5013 47.2533 26.8653 47.286 27.3413 47.286ZM34.7487 48.14C33.8807 48.14 33.2694 47.986 32.9147 47.678C32.5694 47.3607 32.3967 46.866 32.3967 46.194V41.224H33.6567V46.124C33.6567 46.3013 33.6707 46.446 33.6987 46.558C33.736 46.6607 33.7967 46.768 33.8807 46.88C34.0487 47.1227 34.4594 47.244 35.1127 47.244C35.8034 47.244 36.2887 47.1787 36.5687 47.048C36.8394 46.9173 36.9747 46.6793 36.9747 46.334V41.224H38.2347V48H36.9747V47.174C36.8534 47.818 36.1114 48.14 34.7487 48.14ZM43.2641 48.14C42.6854 48.14 42.2327 48.0793 41.9061 47.958C41.5794 47.8273 41.3414 47.6127 41.1921 47.314C41.0521 47.006 40.9821 46.5767 40.9821 46.026V42.05H39.4701V41.224H40.9821V39.124H42.2561V41.224H44.6781V42.05H42.2561V46.096C42.2561 46.432 42.2934 46.684 42.3681 46.852C42.4521 47.02 42.5921 47.1413 42.7881 47.216C42.9934 47.2813 43.2874 47.314 43.6701 47.314C43.7914 47.314 44.1274 47.2767 44.6781 47.202V48.028C44.2021 48.1027 43.7307 48.14 43.2641 48.14Z" fill="#16737A"/>
<path fill-rule="evenodd" clip-rule="evenodd" d="M35.3071 27.6922C36.9994 27.6922 38.3686 26.3076 38.3686 24.6153L38.384 9.23067C38.384 7.52298 36.9994 6.15375 35.3071 6.15375H10.6917C8.98399 6.15375 7.61476 7.52298 7.61476 9.23067V24.6153C7.61476 26.3076 8.98399 27.6922 10.6917 27.6922H4.53784V30.7691H41.4609V27.6922H35.3071ZM10.6917 24.6153V9.23067H35.3071V24.6307L10.6917 24.6153ZM24.5378 14.0461C18.5532 14.8768 16.1686 18.9691 15.3071 23.0768C17.4455 20.1999 20.2609 18.8922 24.5378 18.8922V22.2614L30.6917 16.5076L24.5378 10.7691V14.0461Z" fill="#C48D27"/>
</svg>