<svg width="14" height="17" viewBox="0 0 14 17" fill="none" xmlns="http://www.w3.org/2000/svg">
<path d="M12.87 1.26994L12.43 1.71377V1.71377L12.87 1.26994ZM13.018 3.86973V4.49473C13.3632 4.49473 13.643 4.21491 13.643 3.86973H13.018ZM12.018 3.86973H11.393C11.393 4.21491 11.6728 4.49473 12.018 4.49473V3.86973ZM12.018 2.1293H12.643C12.643 1.96261 12.5764 1.80283 12.458 1.68547C12.3397 1.56811 12.1793 1.5029 12.0126 1.50433L12.018 2.1293ZM2.62282 2.2098L2.61747 1.58482C2.37923 1.58686 2.16288 1.72417 2.0596 1.93886C1.95632 2.15356 1.98409 2.4083 2.13119 2.5957L2.62282 2.2098ZM7.4277 8.33106L6.93606 8.71697V8.71697L7.4277 8.33106ZM7.41827 8.96015L7.89812 9.36061V9.36061L7.41827 8.96015ZM2.87318 14.4063L2.39333 14.0059C2.23789 14.1921 2.20427 14.4515 2.30709 14.6712C2.40991 14.8909 2.63059 15.0313 2.87318 15.0313V14.4063ZM12.018 14.4063V15.0313C12.3632 15.0313 12.643 14.7515 12.643 14.4063H12.018ZM12.018 12.1004V11.4754C11.6728 11.4754 11.393 11.7552 11.393 12.1004H12.018ZM13.018 12.1004H13.643C13.643 11.7552 13.3632 11.4754 13.018 11.4754V12.1004ZM1.35179 15.1182L1.91788 14.8533H1.91788L1.35179 15.1182ZM1.42078 14.586L1.90063 14.9864H1.90063L1.42078 14.586ZM6.39119 8.63015L6.87104 9.03061C7.06006 8.80412 7.06497 8.4763 6.88282 8.24425L6.39119 8.63015ZM1.20826 2.02725L1.69989 1.64135L1.69989 1.64135L1.20826 2.02725ZM1.15099 1.50178L1.71421 1.77272L1.15099 1.50178ZM1.59728 1.21855L1.60264 1.84353H1.60264L1.59728 1.21855ZM12.5137 1.12502L12.5191 1.75L12.5137 1.12502ZM13.643 1.625C13.643 1.32496 13.5231 1.03735 13.3101 0.826105L12.43 1.71377C12.4063 1.69029 12.393 1.65834 12.393 1.625H13.643ZM13.643 3.86973V1.625H12.393V3.86973H13.643ZM12.018 4.49473H13.018V3.24473H12.018V4.49473ZM11.393 2.1293V3.86973H12.643V2.1293H11.393ZM2.62818 2.83478L12.0233 2.75428L12.0126 1.50433L2.61747 1.58482L2.62818 2.83478ZM7.91933 7.94516L3.11446 1.82389L2.13119 2.5957L6.93606 8.71697L7.91933 7.94516ZM7.89812 9.36061C8.23836 8.95293 8.2472 8.36285 7.91933 7.94516L6.93606 8.71697C6.89963 8.67056 6.90062 8.60499 6.93842 8.55969L7.89812 9.36061ZM3.35303 14.8068L7.89812 9.36061L6.93842 8.55969L2.39333 14.0059L3.35303 14.8068ZM12.018 13.7813H2.87318V15.0313H12.018V13.7813ZM11.393 12.1004V14.4063H12.643V12.1004H11.393ZM13.018 11.4754H12.018V12.7254H13.018V11.4754ZM13.643 14.9063V12.1004H12.393V14.9063H13.643ZM12.518 16.0313C13.1393 16.0313 13.643 15.5276 13.643 14.9063H12.393C12.393 14.8373 12.449 14.7813 12.518 14.7813V16.0313ZM1.80466 16.0313H12.518V14.7813H1.80466V16.0313ZM0.785704 15.3831C0.970777 15.7786 1.368 16.0313 1.80466 16.0313V14.7813C1.85318 14.7813 1.89732 14.8094 1.91788 14.8533L0.785704 15.3831ZM0.940931 14.1855C0.661143 14.5208 0.600632 14.9876 0.785704 15.3831L1.91788 14.8533C1.93844 14.8973 1.93172 14.9492 1.90063 14.9864L0.940931 14.1855ZM5.91134 8.22969L0.94093 14.1855L1.90063 14.9864L6.87104 9.03061L5.91134 8.22969ZM0.716629 2.41316L5.89956 9.01606L6.88282 8.24425L1.69989 1.64135L0.716629 2.41316ZM0.587766 1.23085C0.401866 1.6173 0.451842 2.07583 0.716629 2.41316L1.69989 1.64135C1.72931 1.67883 1.73487 1.72978 1.71421 1.77272L0.587766 1.23085ZM1.59193 0.593572C1.1631 0.597246 0.773666 0.844397 0.587766 1.23085L1.71421 1.77272C1.69356 1.81566 1.65028 1.84312 1.60264 1.84353L1.59193 0.593572ZM12.5084 0.500041L1.59193 0.593572L1.60264 1.84353L12.5191 1.75L12.5084 0.500041ZM13.3101 0.826105C13.097 0.614855 12.8084 0.497471 12.5084 0.500041L12.5191 1.75C12.4857 1.75028 12.4537 1.73724 12.43 1.71377L13.3101 0.826105Z" fill="#16737A"/>
</svg>
