<svg viewBox="0 0 29 29" fill="none" xmlns="http://www.w3.org/2000/svg">
<path d="M12.8334 10.6372L10.0376 13.4337L10.6878 14.084L13.4836 11.2875L12.8334 10.6372Z" fill="#8AD7BC"/>
<path d="M18.4344 9.6905L15.6387 12.487L16.2889 13.1373L19.0846 10.3408L18.4344 9.6905Z" fill="#8AD7BC"/>
<path d="M13.4299 10.5768L12.9199 11.342L15.7255 13.2128L16.2355 12.4475L13.4299 10.5768Z" fill="#8AD7BC"/>
<path d="M14.5263 23.348C9.68298 23.348 5.75928 19.4234 5.75928 14.5788C5.75928 9.73431 9.68298 5.80963 14.5263 5.80963C19.3696 5.80963 23.2933 9.73431 23.2933 14.5788C23.2933 19.4234 19.3696 23.348 14.5263 23.348ZM14.5263 6.76014C10.2041 6.76014 6.70955 10.2862 6.70955 14.5788C6.70955 18.8714 10.2347 22.3975 14.5263 22.3975C18.8178 22.3975 22.343 18.8714 22.343 14.5788C22.343 10.2862 18.8485 6.76014 14.5263 6.76014Z" fill="#8AD7BC"/>
<path d="M14.9299 25.7228L14.9228 23.1173C14.9221 22.8633 14.7157 22.658 14.4618 22.6587C14.2078 22.6594 14.0025 22.8658 14.0032 23.1198L14.0103 25.7253C14.011 25.9793 14.2174 26.1846 14.4713 26.1839C14.7253 26.1832 14.9306 25.9768 14.9299 25.7228Z" fill="#8AD7BC"/>
<path d="M14.4833 6.31843C14.222 6.31843 14.0103 6.10663 14.0103 5.84538V3.30129C14.0103 3.05218 14.2078 2.84795 14.4568 2.83965C14.7162 2.83101 14.9317 3.03771 14.934 3.29724L14.9563 5.84123C14.9586 6.1041 14.7462 6.31843 14.4833 6.31843Z" fill="#8AD7BC"/>
<path d="M22.1483 6.18043L20.311 8.02828C20.132 8.20837 20.1328 8.49956 20.3128 8.67867C20.4929 8.85777 20.784 8.85697 20.9631 8.67687L22.8003 6.82903C22.9793 6.64893 22.9785 6.35774 22.7985 6.17864C22.6184 5.99954 22.3273 6.00034 22.1483 6.18043Z" fill="#8AD7BC"/>
<path d="M6.823 22.7737C6.64399 22.9527 6.35482 22.956 6.17169 22.7813C5.98245 22.6006 5.97895 22.2996 6.16394 22.1146L7.91104 20.3675C8.09603 20.1825 8.39702 20.186 8.57767 20.3753C8.75247 20.5584 8.7491 20.8476 8.5701 21.0266L6.823 22.7737Z" fill="#8AD7BC"/>
<path d="M8.72082 8.7166C8.54329 8.89413 8.25573 8.89502 8.0771 8.7186L6.24197 6.90612C6.0616 6.72798 6.05733 6.43813 6.23237 6.25475C6.41247 6.06608 6.71255 6.06259 6.89698 6.24703L8.72082 8.07087C8.89914 8.24918 8.89914 8.53828 8.72082 8.7166Z" fill="#8AD7BC"/>
<path d="M22.859 22.7749C22.6784 22.9641 22.3774 22.9676 22.1924 22.7826L20.4606 21.0508C20.2816 20.8718 20.2783 20.5827 20.4531 20.3995C20.6337 20.2103 20.9347 20.2068 21.1197 20.3918L22.8515 22.1236C23.0305 22.3026 23.0338 22.5917 22.859 22.7749Z" fill="#8AD7BC"/>
<path d="M5.78875 14.0206L3.24448 14.0255C2.99053 14.026 2.78507 14.2323 2.78557 14.4862C2.78606 14.7402 2.99233 14.9456 3.24627 14.9451L5.79055 14.9402C6.04449 14.9397 6.24995 14.7334 6.24946 14.4795C6.24896 14.2255 6.04269 14.0201 5.78875 14.0206Z" fill="#8AD7BC"/>
<path d="M25.9946 14.0202L23.2796 14.0255C23.0257 14.026 22.8202 14.2323 22.8207 14.4862C22.8212 14.7402 23.0275 14.9456 23.2814 14.9451L25.9964 14.9398C26.2503 14.9393 26.4558 14.7331 26.4553 14.4791C26.4548 14.2252 26.2485 14.0197 25.9946 14.0202Z" fill="#8AD7BC"/>
<path d="M14.5316 3.1267C13.6733 3.1267 12.9683 2.42166 12.9683 1.56335C12.9683 0.705039 13.6733 0 14.5316 0C15.3899 0 16.095 0.705039 16.095 1.56335C16.095 2.42166 15.3899 3.1267 14.5316 3.1267ZM14.5316 0.490462C13.9185 0.490462 13.4281 0.980924 13.4281 1.594C13.4281 2.20708 13.9185 2.69754 14.5316 2.69754C15.1447 2.69754 15.6352 2.20708 15.6352 1.594C15.6352 0.980924 15.1447 0.490462 14.5316 0.490462Z" fill="#8AD7BC"/>
<path d="M23.6034 6.96605C22.7451 6.96605 22.04 6.26101 22.04 5.4027C22.04 4.54439 22.7451 3.83936 23.6034 3.83936C24.4617 3.83936 25.1667 4.54439 25.1667 5.4027C25.1667 6.26101 24.4924 6.96605 23.6034 6.96605ZM23.6034 4.29916C22.9903 4.29916 22.4998 4.78963 22.4998 5.4027C22.4998 6.01578 22.9903 6.50624 23.6034 6.50624C24.2165 6.50624 24.7069 6.01578 24.7069 5.4027C24.7069 4.78963 24.2165 4.29916 23.6034 4.29916Z" fill="#8AD7BC"/>
<path d="M27.4364 16.0406C26.5781 16.0406 25.873 15.3355 25.873 14.4772C25.873 13.6189 26.5781 12.9139 27.4364 12.9139C28.2947 12.9139 28.9997 13.6189 28.9997 14.4772C28.9997 15.3355 28.2947 16.0406 27.4364 16.0406ZM27.4364 13.3737C26.8233 13.3737 26.3329 13.8641 26.3329 14.4772C26.3329 15.0903 26.8233 15.5808 27.4364 15.5808C28.0495 15.5808 28.5399 15.0903 28.5399 14.4772C28.5399 13.8641 28.0495 13.3737 27.4364 13.3737Z" fill="#8AD7BC"/>
<path d="M23.6639 25.2284C22.8056 25.2284 22.1006 24.5233 22.1006 23.665C22.1006 22.8067 22.8056 22.1017 23.6639 22.1017C24.5222 22.1017 25.2273 22.8067 25.2273 23.665C25.2273 24.5233 24.5529 25.2284 23.6639 25.2284ZM23.6639 22.5921C23.0509 22.5921 22.5604 23.0826 22.5604 23.6957C22.5604 24.3087 23.0509 24.7992 23.6639 24.7992C24.277 24.7992 24.7675 24.3087 24.7675 23.6957C24.7675 23.0826 24.277 22.5921 23.6639 22.5921Z" fill="#8AD7BC"/>
<path d="M14.5316 28.9908C13.6733 28.9908 12.9683 28.2858 12.9683 27.4275C12.9683 26.5692 13.6733 25.8641 14.5316 25.8641C15.3899 25.8641 16.095 26.5692 16.095 27.4275C16.095 28.2858 15.3899 28.9908 14.5316 28.9908ZM14.5316 26.3239C13.9185 26.3239 13.4281 26.8144 13.4281 27.4275C13.4281 28.0406 13.9185 28.531 14.5316 28.531C15.1447 28.531 15.6352 28.0406 15.6352 27.4275C15.6352 26.8144 15.1447 26.3239 14.5316 26.3239Z" fill="#8AD7BC"/>
<path d="M5.39245 25.2284C4.53414 25.2284 3.8291 24.5233 3.8291 23.665C3.8291 22.8067 4.53414 22.1017 5.39245 22.1017C6.25076 22.1017 6.9558 22.8067 6.9558 23.665C6.9558 24.5233 6.25076 25.2284 5.39245 25.2284ZM5.39245 22.5921C4.77937 22.5921 4.28891 23.0826 4.28891 23.6957C4.28891 24.3087 4.77937 24.7992 5.39245 24.7992C6.00553 24.7992 6.49599 24.3087 6.49599 23.6957C6.49599 23.0826 6.00553 22.5921 5.39245 22.5921Z" fill="#8AD7BC"/>
<path d="M1.56335 16.081C0.70504 16.081 0 15.376 0 14.5177C0 13.6594 0.70504 12.9543 1.56335 12.9543C2.42166 12.9543 3.1267 13.6594 3.1267 14.5177C3.1267 15.376 2.45231 16.081 1.56335 16.081ZM1.56335 13.4141C0.950271 13.4141 0.459808 13.9046 0.459808 14.5177C0.459808 15.1307 0.950271 15.6212 1.56335 15.6212C2.17643 15.6212 2.66689 15.1307 2.66689 14.5177C2.66689 13.9352 2.17643 13.4141 1.56335 13.4141Z" fill="#8AD7BC"/>
<path d="M5.39245 6.96605C4.53414 6.96605 3.8291 6.26101 3.8291 5.4027C3.8291 4.54439 4.53414 3.83936 5.39245 3.83936C6.25076 3.83936 6.9558 4.54439 6.9558 5.4027C6.9558 6.26101 6.25076 6.96605 5.39245 6.96605ZM5.39245 4.29916C4.77937 4.29916 4.28891 4.78963 4.28891 5.4027C4.28891 6.01578 4.77937 6.50624 5.39245 6.50624C6.00553 6.50624 6.49599 6.01578 6.49599 5.4027C6.49599 4.78963 6.00553 4.29916 5.39245 4.29916Z" fill="#8AD7BC"/>
<path d="M11.3084 16.555H9.43848V20.2948H11.3084V16.555Z" fill="#10585E"/>
<path d="M14.1018 14.7021H12.2319V20.3131H14.1018V14.7021Z" fill="#10585E"/>
<path d="M16.9197 15.6366H15.0498V20.2972H16.9197V15.6366Z" fill="#10585E"/>
<path d="M19.7112 12.8127H17.8413V20.2941H19.7112V16.5534V12.8127Z" fill="#10585E"/>
<path d="M10.3581 14.6762C10.8792 14.6762 11.2777 14.2471 11.2777 13.7566C11.2777 13.2355 10.8486 12.837 10.3581 12.837C9.83698 12.837 9.43848 13.2662 9.43848 13.7566C9.43848 14.2777 9.86763 14.6762 10.3581 14.6762Z" fill="#10585E"/>
<path d="M13.1521 11.8078C13.6732 11.8078 14.0717 11.3787 14.0717 10.8882C14.0717 10.3671 13.6426 9.9686 13.1521 9.9686C12.631 9.9686 12.2325 10.3978 12.2325 10.8882C12.2018 11.3787 12.631 11.8078 13.1521 11.8078Z" fill="#10585E"/>
<path d="M15.9095 13.7494C16.4682 13.7494 16.9211 13.2965 16.9211 12.7378C16.9211 12.1791 16.4682 11.7262 15.9095 11.7262C15.3508 11.7262 14.8979 12.1791 14.8979 12.7378C14.8979 13.2965 15.3508 13.7494 15.9095 13.7494Z" fill="#10585E"/>
<path d="M18.7908 10.9299C19.3119 10.9299 19.7104 10.5007 19.7104 10.0103C19.7104 9.48917 19.2813 9.09067 18.7908 9.09067C18.3003 9.09067 17.8712 9.51982 17.8712 10.0103C17.8405 10.5314 18.2697 10.9299 18.7908 10.9299Z" fill="#10585E"/>
<path d="M1.56568 15.8657C2.29365 15.8657 2.88379 15.2755 2.88379 14.5475C2.88379 13.8196 2.29365 13.2294 1.56568 13.2294C0.837701 13.2294 0.247559 13.8196 0.247559 14.5475C0.247559 15.2755 0.837701 15.8657 1.56568 15.8657Z" fill="#10585E"/>
<path d="M27.4353 15.7888C28.1633 15.7888 28.7534 15.1987 28.7534 14.4707C28.7534 13.7427 28.1633 13.1526 27.4353 13.1526C26.7073 13.1526 26.1172 13.7427 26.1172 14.4707C26.1172 15.1987 26.7073 15.7888 27.4353 15.7888Z" fill="#10585E"/>
<path d="M23.6643 25.0251C24.4 25.0251 24.9824 24.4427 24.9824 23.707C24.9824 22.9713 24.4 22.3889 23.6643 22.3889C22.9286 22.3889 22.3462 22.9713 22.3462 23.707C22.3462 24.412 22.9286 25.0251 23.6643 25.0251Z" fill="#10585E"/>
<path d="M14.5325 28.7633C15.2682 28.7633 15.8506 28.1809 15.8506 27.4452C15.8506 26.7095 15.2682 26.1271 14.5325 26.1271C13.7968 26.1271 13.2144 26.7095 13.2144 27.4452C13.2144 28.1809 13.7968 28.7633 14.5325 28.7633Z" fill="#10585E"/>
<path d="M5.39527 25.0251C6.13096 25.0251 6.71338 24.4427 6.71338 23.707C6.71338 22.9713 6.13096 22.3889 5.39527 22.3889C4.65957 22.3889 4.07715 22.9713 4.07715 23.707C4.07715 24.412 4.65957 25.0251 5.39527 25.0251Z" fill="#10585E"/>
<path d="M23.6047 6.7143C24.3404 6.7143 24.9229 6.13187 24.9229 5.39618C24.9229 4.66049 24.3404 4.07806 23.6047 4.07806C22.869 4.07806 22.2866 4.66049 22.2866 5.39618C22.2866 6.13187 22.869 6.7143 23.6047 6.7143Z" fill="#10585E"/>
<path d="M14.5325 2.89921C15.2682 2.89921 15.8506 2.31678 15.8506 1.58109C15.8506 0.845394 15.2682 0.26297 14.5325 0.26297C13.7968 0.26297 13.2144 0.845394 13.2144 1.58109C13.2144 2.28613 13.7968 2.89921 14.5325 2.89921Z" fill="#10585E"/>
<path d="M5.39527 6.7143C6.12324 6.7143 6.71338 6.12416 6.71338 5.39618C6.71338 4.6682 6.12324 4.07806 5.39527 4.07806C4.66729 4.07806 4.07715 4.6682 4.07715 5.39618C4.07715 6.12416 4.66729 6.7143 5.39527 6.7143Z" fill="#10585E"/>
</svg>
